<svg id="visual" viewBox="0 0 900 600" width="900" height="600" xmlns="http://www.w3.org/2000/svg" xmlns:xlink="http://www.w3.org/1999/xlink" version="1.1"><rect x="0" y="0" width="900" height="600" fill="#000F0F"></rect><path d="M0 386L16.7 383.2C33.3 380.3 66.7 374.7 100 357.2C133.3 339.7 166.7 310.3 200 287.2C233.3 264 266.7 247 300 238C333.3 229 366.7 228 400 225.2C433.3 222.3 466.7 217.7 500 215C533.3 212.3 566.7 211.7 600 212.5C633.3 213.3 666.7 215.7 700 227.2C733.3 238.7 766.7 259.3 800 291.7C833.3 324 866.7 368 883.3 390L900 412L900 0L883.3 0C866.7 0 833.3 0 800 0C766.7 0 733.3 0 700 0C666.7 0 633.3 0 600 0C566.7 0 533.3 0 500 0C466.7 0 433.3 0 400 0C366.7 0 333.3 0 300 0C266.7 0 233.3 0 200 0C166.7 0 133.3 0 100 0C66.7 0 33.3 0 16.7 0L0 0Z" fill="#0f0f0f"></path><path d="M0 333L16.7 326.3C33.3 319.7 66.7 306.3 100 312.7C133.3 319 166.7 345 200 336.5C233.3 328 266.7 285 300 288.7C333.3 292.3 366.7 342.7 400 365.7C433.3 388.7 466.7 384.3 500 367C533.3 349.7 566.7 319.3 600 294.8C633.3 270.3 666.7 251.7 700 267.3C733.3 283 766.7 333 800 332C833.3 331 866.7 279 883.3 253L900 227L900 0L883.3 0C866.7 0 833.3 0 800 0C766.7 0 733.3 0 700 0C666.7 0 633.3 0 600 0C566.7 0 533.3 0 500 0C466.7 0 433.3 0 400 0C366.7 0 333.3 0 300 0C266.7 0 233.3 0 200 0C166.7 0 133.3 0 100 0C66.7 0 33.3 0 16.7 0L0 0Z" fill="#281e15"></path><path d="M0 208L16.7 213.7C33.3 219.3 66.7 230.7 100 229.7C133.3 228.7 166.7 215.3 200 235.5C233.3 255.7 266.7 309.3 300 320.8C333.3 332.3 366.7 301.7 400 271.7C433.3 241.7 466.7 212.3 500 201.5C533.3 190.7 566.7 198.3 600 200.2C633.3 202 666.7 198 700 196.8C733.3 195.7 766.7 197.3 800 205C833.3 212.7 866.7 226.3 883.3 233.2L900 240L900 0L883.3 0C866.7 0 833.3 0 800 0C766.7 0 733.3 0 700 0C666.7 0 633.3 0 600 0C566.7 0 533.3 0 500 0C466.7 0 433.3 0 400 0C366.7 0 333.3 0 300 0C266.7 0 233.3 0 200 0C166.7 0 133.3 0 100 0C66.7 0 33.3 0 16.7 0L0 0Z" fill="#3f2d19"></path><path d="M0 236L16.7 232.7C33.3 229.3 66.7 222.7 100 236.2C133.3 249.7 166.7 283.3 200 278.8C233.3 274.3 266.7 231.7 300 215.3C333.3 199 366.7 209 400 210.7C433.3 212.3 466.7 205.7 500 211C533.3 216.3 566.7 233.7 600 250.7C633.3 267.7 666.7 284.3 700 290.7C733.3 297 766.7 293 800 267.2C833.3 241.3 866.7 193.7 883.3 169.8L900 146L900 0L883.3 0C866.7 0 833.3 0 800 0C766.7 0 733.3 0 700 0C666.7 0 633.3 0 600 0C566.7 0 533.3 0 500 0C466.7 0 433.3 0 400 0C366.7 0 333.3 0 300 0C266.7 0 233.3 0 200 0C166.7 0 133.3 0 100 0C66.7 0 33.3 0 16.7 0L0 0Z" fill="#583c1c"></path><path d="M0 227L16.7 210C33.3 193 66.7 159 100 147C133.3 135 166.7 145 200 147C233.3 149 266.7 143 300 140.7C333.3 138.3 366.7 139.7 400 150C433.3 160.3 466.7 179.7 500 180C533.3 180.3 566.7 161.7 600 151.5C633.3 141.3 666.7 139.7 700 142.2C733.3 144.7 766.7 151.3 800 157.7C833.3 164 866.7 170 883.3 173L900 176L900 0L883.3 0C866.7 0 833.3 0 800 0C766.7 0 733.3 0 700 0C666.7 0 633.3 0 600 0C566.7 0 533.3 0 500 0C466.7 0 433.3 0 400 0C366.7 0 333.3 0 300 0C266.7 0 233.3 0 200 0C166.7 0 133.3 0 100 0C66.7 0 33.3 0 16.7 0L0 0Z" fill="#724c1f"></path><path d="M0 155L16.7 164C33.3 173 66.7 191 100 189.8C133.3 188.7 166.7 168.3 200 170.5C233.3 172.7 266.7 197.3 300 201.3C333.3 205.3 366.7 188.7 400 187C433.3 185.3 466.7 198.7 500 201C533.3 203.3 566.7 194.7 600 196C633.3 197.3 666.7 208.7 700 212.8C733.3 217 766.7 214 800 195.8C833.3 177.7 866.7 144.3 883.3 127.7L900 111L900 0L883.3 0C866.7 0 833.3 0 800 0C766.7 0 733.3 0 700 0C666.7 0 633.3 0 600 0C566.7 0 533.3 0 500 0C466.7 0 433.3 0 400 0C366.7 0 333.3 0 300 0C266.7 0 233.3 0 200 0C166.7 0 133.3 0 100 0C66.7 0 33.3 0 16.7 0L0 0Z" fill="#8d5d21"></path><path d="M0 116L16.7 113.2C33.3 110.3 66.7 104.7 100 106.7C133.3 108.7 166.7 118.3 200 126.8C233.3 135.3 266.7 142.7 300 134C333.3 125.3 366.7 100.7 400 105C433.3 109.3 466.7 142.7 500 141.8C533.3 141 566.7 106 600 97.3C633.3 88.7 666.7 106.3 700 114.2C733.3 122 766.7 120 800 121.2C833.3 122.3 866.7 126.7 883.3 128.8L900 131L900 0L883.3 0C866.7 0 833.3 0 800 0C766.7 0 733.3 0 700 0C666.7 0 633.3 0 600 0C566.7 0 533.3 0 500 0C466.7 0 433.3 0 400 0C366.7 0 333.3 0 300 0C266.7 0 233.3 0 200 0C166.7 0 133.3 0 100 0C66.7 0 33.3 0 16.7 0L0 0Z" fill="#a96e22"></path><path d="M0 60L16.7 64.8C33.3 69.7 66.7 79.3 100 87.8C133.3 96.3 166.7 103.7 200 101C233.3 98.3 266.7 85.7 300 78.7C333.3 71.7 366.7 70.3 400 73.3C433.3 76.3 466.7 83.7 500 88.7C533.3 93.7 566.7 96.3 600 97.3C633.3 98.3 666.7 97.7 700 92C733.3 86.3 766.7 75.7 800 69.7C833.3 63.7 866.7 62.3 883.3 61.7L900 61L900 0L883.3 0C866.7 0 833.3 0 800 0C766.7 0 733.3 0 700 0C666.7 0 633.3 0 600 0C566.7 0 533.3 0 500 0C466.7 0 433.3 0 400 0C366.7 0 333.3 0 300 0C266.7 0 233.3 0 200 0C166.7 0 133.3 0 100 0C66.7 0 33.3 0 16.7 0L0 0Z" fill="#c67f23"></path><path d="M0 60L16.7 56.2C33.3 52.3 66.7 44.7 100 46.3C133.3 48 166.7 59 200 62.5C233.3 66 266.7 62 300 62.8C333.3 63.7 366.7 69.3 400 73C433.3 76.7 466.7 78.3 500 71.3C533.3 64.3 566.7 48.7 600 41.8C633.3 35 666.7 37 700 36.7C733.3 36.3 766.7 33.7 800 38.7C833.3 43.7 866.7 56.3 883.3 62.7L900 69L900 0L883.3 0C866.7 0 833.3 0 800 0C766.7 0 733.3 0 700 0C666.7 0 633.3 0 600 0C566.7 0 533.3 0 500 0C466.7 0 433.3 0 400 0C366.7 0 333.3 0 300 0C266.7 0 233.3 0 200 0C166.7 0 133.3 0 100 0C66.7 0 33.3 0 16.7 0L0 0Z" fill="#e39123"></path></svg>