<svg id="visual" viewBox="0 0 900 900" width="900" height="900" xmlns="http://www.w3.org/2000/svg" xmlns:xlink="http://www.w3.org/1999/xlink" version="1.1"><rect x="0" y="0" width="900" height="900" fill="#0F0F0F"></rect><path d="M0 566L16.7 547.7C33.3 529.3 66.7 492.7 100 491.7C133.3 490.7 166.7 525.3 200 569.2C233.3 613 266.7 666 300 662.8C333.3 659.7 366.7 600.3 400 580.7C433.3 561 466.7 581 500 508.5C533.3 436 566.7 271 600 218.7C633.3 166.3 666.7 226.7 700 310.3C733.3 394 766.7 501 800 495.8C833.3 490.7 866.7 373.3 883.3 314.7L900 256L900 0L883.3 0C866.7 0 833.3 0 800 0C766.7 0 733.3 0 700 0C666.7 0 633.3 0 600 0C566.7 0 533.3 0 500 0C466.7 0 433.3 0 400 0C366.7 0 333.3 0 300 0C266.7 0 233.3 0 200 0C166.7 0 133.3 0 100 0C66.7 0 33.3 0 16.7 0L0 0Z" fill="#0f0f0f"></path><path d="M0 549L16.7 576C33.3 603 66.7 657 100 627.8C133.3 598.7 166.7 486.3 200 472.2C233.3 458 266.7 542 300 553C333.3 564 366.7 502 400 440.3C433.3 378.7 466.7 317.3 500 289.7C533.3 262 566.7 268 600 276.5C633.3 285 666.7 296 700 322.3C733.3 348.7 766.7 390.3 800 405.2C833.3 420 866.7 408 883.3 402L900 396L900 0L883.3 0C866.7 0 833.3 0 800 0C766.7 0 733.3 0 700 0C666.7 0 633.3 0 600 0C566.7 0 533.3 0 500 0C466.7 0 433.3 0 400 0C366.7 0 333.3 0 300 0C266.7 0 233.3 0 200 0C166.7 0 133.3 0 100 0C66.7 0 33.3 0 16.7 0L0 0Z" fill="#201d18"></path><path d="M0 642L16.7 577.3C33.3 512.7 66.7 383.3 100 308.2C133.3 233 166.7 212 200 223C233.3 234 266.7 277 300 335C333.3 393 366.7 466 400 448C433.3 430 466.7 321 500 260.3C533.3 199.7 566.7 187.3 600 193.2C633.3 199 666.7 223 700 250.5C733.3 278 766.7 309 800 355.7C833.3 402.3 866.7 464.7 883.3 495.8L900 527L900 0L883.3 0C866.7 0 833.3 0 800 0C766.7 0 733.3 0 700 0C666.7 0 633.3 0 600 0C566.7 0 533.3 0 500 0C466.7 0 433.3 0 400 0C366.7 0 333.3 0 300 0C266.7 0 233.3 0 200 0C166.7 0 133.3 0 100 0C66.7 0 33.3 0 16.7 0L0 0Z" fill="#312a20"></path><path d="M0 298L16.7 320.8C33.3 343.7 66.7 389.3 100 423.3C133.3 457.3 166.7 479.7 200 434.7C233.3 389.7 266.7 277.3 300 256.5C333.3 235.7 366.7 306.3 400 367.2C433.3 428 466.7 479 500 442.2C533.3 405.3 566.7 280.7 600 238.5C633.3 196.3 666.7 236.7 700 229.8C733.3 223 766.7 169 800 191.7C833.3 214.3 866.7 313.7 883.3 363.3L900 413L900 0L883.3 0C866.7 0 833.3 0 800 0C766.7 0 733.3 0 700 0C666.7 0 633.3 0 600 0C566.7 0 533.3 0 500 0C466.7 0 433.3 0 400 0C366.7 0 333.3 0 300 0C266.7 0 233.3 0 200 0C166.7 0 133.3 0 100 0C66.7 0 33.3 0 16.7 0L0 0Z" fill="#423829"></path><path d="M0 410L16.7 427.5C33.3 445 66.7 480 100 451.8C133.3 423.7 166.7 332.3 200 300.7C233.3 269 266.7 297 300 311.8C333.3 326.7 366.7 328.3 400 347.8C433.3 367.3 466.7 404.7 500 411.7C533.3 418.7 566.7 395.3 600 374C633.3 352.7 666.7 333.3 700 346.5C733.3 359.7 766.7 405.3 800 400.7C833.3 396 866.7 341 883.3 313.5L900 286L900 0L883.3 0C866.7 0 833.3 0 800 0C766.7 0 733.3 0 700 0C666.7 0 633.3 0 600 0C566.7 0 533.3 0 500 0C466.7 0 433.3 0 400 0C366.7 0 333.3 0 300 0C266.7 0 233.3 0 200 0C166.7 0 133.3 0 100 0C66.7 0 33.3 0 16.7 0L0 0Z" fill="#554631"></path><path d="M0 201L16.7 242.8C33.3 284.7 66.7 368.3 100 352.2C133.3 336 166.7 220 200 169.8C233.3 119.7 266.7 135.3 300 157.8C333.3 180.3 366.7 209.7 400 219.2C433.3 228.7 466.7 218.3 500 254.3C533.3 290.3 566.7 372.7 600 362.2C633.3 351.7 666.7 248.3 700 206.3C733.3 164.3 766.7 183.7 800 211.8C833.3 240 866.7 277 883.3 295.5L900 314L900 0L883.3 0C866.7 0 833.3 0 800 0C766.7 0 733.3 0 700 0C666.7 0 633.3 0 600 0C566.7 0 533.3 0 500 0C466.7 0 433.3 0 400 0C366.7 0 333.3 0 300 0C266.7 0 233.3 0 200 0C166.7 0 133.3 0 100 0C66.7 0 33.3 0 16.7 0L0 0Z" fill="#67553a"></path><path d="M0 196L16.7 221.2C33.3 246.3 66.7 296.7 100 313.7C133.3 330.7 166.7 314.3 200 304.2C233.3 294 266.7 290 300 254.8C333.3 219.7 366.7 153.3 400 126.2C433.3 99 466.7 111 500 107.2C533.3 103.3 566.7 83.7 600 123.3C633.3 163 666.7 262 700 315.7C733.3 369.3 766.7 377.7 800 342.3C833.3 307 866.7 228 883.3 188.5L900 149L900 0L883.3 0C866.7 0 833.3 0 800 0C766.7 0 733.3 0 700 0C666.7 0 633.3 0 600 0C566.7 0 533.3 0 500 0C466.7 0 433.3 0 400 0C366.7 0 333.3 0 300 0C266.7 0 233.3 0 200 0C166.7 0 133.3 0 100 0C66.7 0 33.3 0 16.7 0L0 0Z" fill="#7b6542"></path><path d="M0 113L16.7 150C33.3 187 66.7 261 100 277.7C133.3 294.3 166.7 253.7 200 238.8C233.3 224 266.7 235 300 225.2C333.3 215.3 366.7 184.7 400 176.7C433.3 168.7 466.7 183.3 500 204.3C533.3 225.3 566.7 252.7 600 243.5C633.3 234.3 666.7 188.7 700 188.8C733.3 189 766.7 235 800 257.3C833.3 279.7 866.7 278.3 883.3 277.7L900 277L900 0L883.3 0C866.7 0 833.3 0 800 0C766.7 0 733.3 0 700 0C666.7 0 633.3 0 600 0C566.7 0 533.3 0 500 0C466.7 0 433.3 0 400 0C366.7 0 333.3 0 300 0C266.7 0 233.3 0 200 0C166.7 0 133.3 0 100 0C66.7 0 33.3 0 16.7 0L0 0Z" fill="#8f754b"></path><path d="M0 289L16.7 247.2C33.3 205.3 66.7 121.7 100 95.3C133.3 69 166.7 100 200 140.7C233.3 181.3 266.7 231.7 300 224C333.3 216.3 366.7 150.7 400 133C433.3 115.3 466.7 145.7 500 151.2C533.3 156.7 566.7 137.3 600 157C633.3 176.7 666.7 235.3 700 253.5C733.3 271.7 766.7 249.3 800 248.3C833.3 247.3 866.7 267.7 883.3 277.8L900 288L900 0L883.3 0C866.7 0 833.3 0 800 0C766.7 0 733.3 0 700 0C666.7 0 633.3 0 600 0C566.7 0 533.3 0 500 0C466.7 0 433.3 0 400 0C366.7 0 333.3 0 300 0C266.7 0 233.3 0 200 0C166.7 0 133.3 0 100 0C66.7 0 33.3 0 16.7 0L0 0Z" fill="#a38555"></path><path d="M0 218L16.7 209C33.3 200 66.7 182 100 170.3C133.3 158.7 166.7 153.3 200 150.2C233.3 147 266.7 146 300 132.5C333.3 119 366.7 93 400 87.8C433.3 82.7 466.7 98.3 500 114C533.3 129.7 566.7 145.3 600 144.5C633.3 143.7 666.7 126.3 700 115.3C733.3 104.3 766.7 99.7 800 114C833.3 128.3 866.7 161.7 883.3 178.3L900 195L900 0L883.3 0C866.7 0 833.3 0 800 0C766.7 0 733.3 0 700 0C666.7 0 633.3 0 600 0C566.7 0 533.3 0 500 0C466.7 0 433.3 0 400 0C366.7 0 333.3 0 300 0C266.7 0 233.3 0 200 0C166.7 0 133.3 0 100 0C66.7 0 33.3 0 16.7 0L0 0Z" fill="#b9965e"></path><path d="M0 86L16.7 97.7C33.3 109.3 66.7 132.7 100 140.8C133.3 149 166.7 142 200 120.7C233.3 99.3 266.7 63.7 300 70.2C333.3 76.7 366.7 125.3 400 126.3C433.3 127.3 466.7 80.7 500 77.7C533.3 74.7 566.7 115.3 600 134.7C633.3 154 666.7 152 700 142.7C733.3 133.3 766.7 116.7 800 117.2C833.3 117.7 866.7 135.3 883.3 144.2L900 153L900 0L883.3 0C866.7 0 833.3 0 800 0C766.7 0 733.3 0 700 0C666.7 0 633.3 0 600 0C566.7 0 533.3 0 500 0C466.7 0 433.3 0 400 0C366.7 0 333.3 0 300 0C266.7 0 233.3 0 200 0C166.7 0 133.3 0 100 0C66.7 0 33.3 0 16.7 0L0 0Z" fill="#cea767"></path><path d="M0 112L16.7 110C33.3 108 66.7 104 100 104.3C133.3 104.7 166.7 109.3 200 105C233.3 100.7 266.7 87.3 300 75.5C333.3 63.7 366.7 53.3 400 55.3C433.3 57.3 466.7 71.7 500 75.2C533.3 78.7 566.7 71.3 600 59.3C633.3 47.3 666.7 30.7 700 28C733.3 25.3 766.7 36.7 800 44.8C833.3 53 866.7 58 883.3 60.5L900 63L900 0L883.3 0C866.7 0 833.3 0 800 0C766.7 0 733.3 0 700 0C666.7 0 633.3 0 600 0C566.7 0 533.3 0 500 0C466.7 0 433.3 0 400 0C366.7 0 333.3 0 300 0C266.7 0 233.3 0 200 0C166.7 0 133.3 0 100 0C66.7 0 33.3 0 16.7 0L0 0Z" fill="#e4b871"></path></svg>