<svg id="visual" viewBox="0 0 900 900" width="900" height="900" xmlns="http://www.w3.org/2000/svg" xmlns:xlink="http://www.w3.org/1999/xlink" version="1.1"><rect x="0" y="0" width="900" height="900" fill="#0F0F0F"></rect><path d="M0 728L16.7 633C33.3 538 66.7 348 100 249.2C133.3 150.3 166.7 142.7 200 175.7C233.3 208.7 266.7 282.3 300 301.3C333.3 320.3 366.7 284.7 400 283C433.3 281.3 466.7 313.7 500 359.2C533.3 404.7 566.7 463.3 600 424.7C633.3 386 666.7 250 700 208.8C733.3 167.7 766.7 221.3 800 236.2C833.3 251 866.7 227 883.3 215L900 203L900 0L883.3 0C866.7 0 833.3 0 800 0C766.7 0 733.3 0 700 0C666.7 0 633.3 0 600 0C566.7 0 533.3 0 500 0C466.7 0 433.3 0 400 0C366.7 0 333.3 0 300 0C266.7 0 233.3 0 200 0C166.7 0 133.3 0 100 0C66.7 0 33.3 0 16.7 0L0 0Z" fill="#0f0f0f"></path><path d="M0 463L16.7 503.5C33.3 544 66.7 625 100 585.8C133.3 546.7 166.7 387.3 200 306.8C233.3 226.3 266.7 224.7 300 235.2C333.3 245.7 366.7 268.3 400 343.5C433.3 418.7 466.7 546.3 500 518C533.3 489.7 566.7 305.3 600 221C633.3 136.7 666.7 152.3 700 153.5C733.3 154.7 766.7 141.3 800 187.8C833.3 234.3 866.7 340.7 883.3 393.8L900 447L900 0L883.3 0C866.7 0 833.3 0 800 0C766.7 0 733.3 0 700 0C666.7 0 633.3 0 600 0C566.7 0 533.3 0 500 0C466.7 0 433.3 0 400 0C366.7 0 333.3 0 300 0C266.7 0 233.3 0 200 0C166.7 0 133.3 0 100 0C66.7 0 33.3 0 16.7 0L0 0Z" fill="#21201e"></path><path d="M0 134L16.7 177.8C33.3 221.7 66.7 309.3 100 332.3C133.3 355.3 166.7 313.7 200 316.5C233.3 319.3 266.7 366.7 300 402.8C333.3 439 366.7 464 400 474.7C433.3 485.3 466.7 481.7 500 502.5C533.3 523.3 566.7 568.7 600 590.7C633.3 612.7 666.7 611.3 700 582.3C733.3 553.3 766.7 496.7 800 467.8C833.3 439 866.7 438 883.3 437.5L900 437L900 0L883.3 0C866.7 0 833.3 0 800 0C766.7 0 733.3 0 700 0C666.7 0 633.3 0 600 0C566.7 0 533.3 0 500 0C466.7 0 433.3 0 400 0C366.7 0 333.3 0 300 0C266.7 0 233.3 0 200 0C166.7 0 133.3 0 100 0C66.7 0 33.3 0 16.7 0L0 0Z" fill="#33322b"></path><path d="M0 360L16.7 375.3C33.3 390.7 66.7 421.3 100 407.8C133.3 394.3 166.7 336.7 200 342.7C233.3 348.7 266.7 418.3 300 413C333.3 407.7 366.7 327.3 400 338.5C433.3 349.7 466.7 452.3 500 503.5C533.3 554.7 566.7 554.3 600 477.3C633.3 400.3 666.7 246.7 700 234.8C733.3 223 766.7 353 800 391.2C833.3 429.3 866.7 375.7 883.3 348.8L900 322L900 0L883.3 0C866.7 0 833.3 0 800 0C766.7 0 733.3 0 700 0C666.7 0 633.3 0 600 0C566.7 0 533.3 0 500 0C466.7 0 433.3 0 400 0C366.7 0 333.3 0 300 0C266.7 0 233.3 0 200 0C166.7 0 133.3 0 100 0C66.7 0 33.3 0 16.7 0L0 0Z" fill="#47443a"></path><path d="M0 186L16.7 219.5C33.3 253 66.7 320 100 344.2C133.3 368.3 166.7 349.7 200 312.5C233.3 275.3 266.7 219.7 300 210.3C333.3 201 366.7 238 400 279.8C433.3 321.7 466.7 368.3 500 369C533.3 369.7 566.7 324.3 600 322.2C633.3 320 666.7 361 700 353.8C733.3 346.7 766.7 291.3 800 259C833.3 226.7 866.7 217.3 883.3 212.7L900 208L900 0L883.3 0C866.7 0 833.3 0 800 0C766.7 0 733.3 0 700 0C666.7 0 633.3 0 600 0C566.7 0 533.3 0 500 0C466.7 0 433.3 0 400 0C366.7 0 333.3 0 300 0C266.7 0 233.3 0 200 0C166.7 0 133.3 0 100 0C66.7 0 33.3 0 16.7 0L0 0Z" fill="#5b5749"></path><path d="M0 342L16.7 339.8C33.3 337.7 66.7 333.3 100 313C133.3 292.7 166.7 256.3 200 257.3C233.3 258.3 266.7 296.7 300 323C333.3 349.3 366.7 363.7 400 373.3C433.3 383 466.7 388 500 339.2C533.3 290.3 566.7 187.7 600 196.3C633.3 205 666.7 325 700 384.7C733.3 444.3 766.7 443.7 800 441C833.3 438.3 866.7 433.7 883.3 431.3L900 429L900 0L883.3 0C866.7 0 833.3 0 800 0C766.7 0 733.3 0 700 0C666.7 0 633.3 0 600 0C566.7 0 533.3 0 500 0C466.7 0 433.3 0 400 0C366.7 0 333.3 0 300 0C266.7 0 233.3 0 200 0C166.7 0 133.3 0 100 0C66.7 0 33.3 0 16.7 0L0 0Z" fill="#6f6b59"></path><path d="M0 303L16.7 290C33.3 277 66.7 251 100 261.3C133.3 271.7 166.7 318.3 200 314.5C233.3 310.7 266.7 256.3 300 236.3C333.3 216.3 366.7 230.7 400 228C433.3 225.3 466.7 205.7 500 229C533.3 252.3 566.7 318.7 600 341.5C633.3 364.3 666.7 343.7 700 315.5C733.3 287.3 766.7 251.7 800 240.8C833.3 230 866.7 244 883.3 251L900 258L900 0L883.3 0C866.7 0 833.3 0 800 0C766.7 0 733.3 0 700 0C666.7 0 633.3 0 600 0C566.7 0 533.3 0 500 0C466.7 0 433.3 0 400 0C366.7 0 333.3 0 300 0C266.7 0 233.3 0 200 0C166.7 0 133.3 0 100 0C66.7 0 33.3 0 16.7 0L0 0Z" fill="#857f69"></path><path d="M0 199L16.7 191.7C33.3 184.3 66.7 169.7 100 180.5C133.3 191.3 166.7 227.7 200 231C233.3 234.3 266.7 204.7 300 193.8C333.3 183 366.7 191 400 173.5C433.3 156 466.7 113 500 120C533.3 127 566.7 184 600 207.3C633.3 230.7 666.7 220.3 700 231.5C733.3 242.7 766.7 275.3 800 287.2C833.3 299 866.7 290 883.3 285.5L900 281L900 0L883.3 0C866.7 0 833.3 0 800 0C766.7 0 733.3 0 700 0C666.7 0 633.3 0 600 0C566.7 0 533.3 0 500 0C466.7 0 433.3 0 400 0C366.7 0 333.3 0 300 0C266.7 0 233.3 0 200 0C166.7 0 133.3 0 100 0C66.7 0 33.3 0 16.7 0L0 0Z" fill="#9b947a"></path><path d="M0 49L16.7 89.8C33.3 130.7 66.7 212.3 100 210.3C133.3 208.3 166.7 122.7 200 117.7C233.3 112.7 266.7 188.3 300 208C333.3 227.7 366.7 191.3 400 174.5C433.3 157.7 466.7 160.3 500 169.8C533.3 179.3 566.7 195.7 600 201.2C633.3 206.7 666.7 201.3 700 209C733.3 216.7 766.7 237.3 800 217C833.3 196.7 866.7 135.3 883.3 104.7L900 74L900 0L883.3 0C866.7 0 833.3 0 800 0C766.7 0 733.3 0 700 0C666.7 0 633.3 0 600 0C566.7 0 533.3 0 500 0C466.7 0 433.3 0 400 0C366.7 0 333.3 0 300 0C266.7 0 233.3 0 200 0C166.7 0 133.3 0 100 0C66.7 0 33.3 0 16.7 0L0 0Z" fill="#b2aa8b"></path><path d="M0 90L16.7 105.8C33.3 121.7 66.7 153.3 100 170.5C133.3 187.7 166.7 190.3 200 185.3C233.3 180.3 266.7 167.7 300 161.5C333.3 155.3 366.7 155.7 400 145.2C433.3 134.7 466.7 113.3 500 114.2C533.3 115 566.7 138 600 130.3C633.3 122.7 666.7 84.3 700 96C733.3 107.7 766.7 169.3 800 183.7C833.3 198 866.7 165 883.3 148.5L900 132L900 0L883.3 0C866.7 0 833.3 0 800 0C766.7 0 733.3 0 700 0C666.7 0 633.3 0 600 0C566.7 0 533.3 0 500 0C466.7 0 433.3 0 400 0C366.7 0 333.3 0 300 0C266.7 0 233.3 0 200 0C166.7 0 133.3 0 100 0C66.7 0 33.3 0 16.7 0L0 0Z" fill="#c9c09c"></path><path d="M0 133L16.7 126C33.3 119 66.7 105 100 93.3C133.3 81.7 166.7 72.3 200 77.3C233.3 82.3 266.7 101.7 300 105.8C333.3 110 366.7 99 400 100.8C433.3 102.7 466.7 117.3 500 106.5C533.3 95.7 566.7 59.3 600 54.5C633.3 49.7 666.7 76.3 700 92.7C733.3 109 766.7 115 800 101C833.3 87 866.7 53 883.3 36L900 19L900 0L883.3 0C866.7 0 833.3 0 800 0C766.7 0 733.3 0 700 0C666.7 0 633.3 0 600 0C566.7 0 533.3 0 500 0C466.7 0 433.3 0 400 0C366.7 0 333.3 0 300 0C266.7 0 233.3 0 200 0C166.7 0 133.3 0 100 0C66.7 0 33.3 0 16.7 0L0 0Z" fill="#e1d7ae"></path><path d="M0 7L16.7 21C33.3 35 66.7 63 100 75.2C133.3 87.3 166.7 83.7 200 87.8C233.3 92 266.7 104 300 104.2C333.3 104.3 366.7 92.7 400 87C433.3 81.3 466.7 81.7 500 76.7C533.3 71.7 566.7 61.3 600 67C633.3 72.7 666.7 94.3 700 104C733.3 113.7 766.7 111.3 800 103.2C833.3 95 866.7 81 883.3 74L900 67L900 0L883.3 0C866.7 0 833.3 0 800 0C766.7 0 733.3 0 700 0C666.7 0 633.3 0 600 0C566.7 0 533.3 0 500 0C466.7 0 433.3 0 400 0C366.7 0 333.3 0 300 0C266.7 0 233.3 0 200 0C166.7 0 133.3 0 100 0C66.7 0 33.3 0 16.7 0L0 0Z" fill="#f9eec0"></path></svg>