<svg id="visual" viewBox="0 0 900 900" width="900" height="900" xmlns="http://www.w3.org/2000/svg" xmlns:xlink="http://www.w3.org/1999/xlink" version="1.1"><rect x="0" y="0" width="900" height="900" fill="#0F0F0F"></rect><path d="M0 492L15 477.5C30 463 60 434 90 457C120 480 150 555 180 573.8C210 592.7 240 555.3 270 506.2C300 457 330 396 360 362.3C390 328.7 420 322.3 450 331.3C480 340.3 510 364.7 540 371.3C570 378 600 367 630 369.8C660 372.7 690 389.3 720 421.2C750 453 780 500 810 547.5C840 595 870 643 885 667L900 691L900 0L885 0C870 0 840 0 810 0C780 0 750 0 720 0C690 0 660 0 630 0C600 0 570 0 540 0C510 0 480 0 450 0C420 0 390 0 360 0C330 0 300 0 270 0C240 0 210 0 180 0C150 0 120 0 90 0C60 0 30 0 15 0L0 0Z" fill="#0f0f0f"></path><path d="M0 532L15 545.7C30 559.3 60 586.7 90 588.2C120 589.7 150 565.3 180 511.7C210 458 240 375 270 385.7C300 396.3 330 500.7 360 554.7C390 608.7 420 612.3 450 586.3C480 560.3 510 504.7 540 502.5C570 500.3 600 551.7 630 544.2C660 536.7 690 470.3 720 429C750 387.7 780 371.3 810 372.7C840 374 870 393 885 402.5L900 412L900 0L885 0C870 0 840 0 810 0C780 0 750 0 720 0C690 0 660 0 630 0C600 0 570 0 540 0C510 0 480 0 450 0C420 0 390 0 360 0C330 0 300 0 270 0C240 0 210 0 180 0C150 0 120 0 90 0C60 0 30 0 15 0L0 0Z" fill="#161819"></path><path d="M0 307L15 331C30 355 60 403 90 432C120 461 150 471 180 438.2C210 405.3 240 329.7 270 316.2C300 302.7 330 351.3 360 377.7C390 404 420 408 450 439.5C480 471 510 530 540 556.8C570 583.7 600 578.3 630 531.5C660 484.7 690 396.3 720 379.7C750 363 780 418 810 414C840 410 870 347 885 315.5L900 284L900 0L885 0C870 0 840 0 810 0C780 0 750 0 720 0C690 0 660 0 630 0C600 0 570 0 540 0C510 0 480 0 450 0C420 0 390 0 360 0C330 0 300 0 270 0C240 0 210 0 180 0C150 0 120 0 90 0C60 0 30 0 15 0L0 0Z" fill="#1d2022"></path><path d="M0 463L15 439.5C30 416 60 369 90 374.7C120 380.3 150 438.7 180 467.8C210 497 240 497 270 476.7C300 456.3 330 415.7 360 387.2C390 358.7 420 342.3 450 351.2C480 360 510 394 540 411.2C570 428.3 600 428.7 630 400C660 371.3 690 313.7 720 316.2C750 318.7 780 381.3 810 398C840 414.7 870 385.3 885 370.7L900 356L900 0L885 0C870 0 840 0 810 0C780 0 750 0 720 0C690 0 660 0 630 0C600 0 570 0 540 0C510 0 480 0 450 0C420 0 390 0 360 0C330 0 300 0 270 0C240 0 210 0 180 0C150 0 120 0 90 0C60 0 30 0 15 0L0 0Z" fill="#23282b"></path><path d="M0 322L15 310.8C30 299.7 60 277.3 90 285C120 292.7 150 330.3 180 337.3C210 344.3 240 320.7 270 321.7C300 322.7 330 348.3 360 332C390 315.7 420 257.3 450 267.3C480 277.3 510 355.7 540 380.2C570 404.7 600 375.3 630 365.7C660 356 690 366 720 369.5C750 373 780 370 810 378.8C840 387.7 870 408.3 885 418.7L900 429L900 0L885 0C870 0 840 0 810 0C780 0 750 0 720 0C690 0 660 0 630 0C600 0 570 0 540 0C510 0 480 0 450 0C420 0 390 0 360 0C330 0 300 0 270 0C240 0 210 0 180 0C150 0 120 0 90 0C60 0 30 0 15 0L0 0Z" fill="#293034"></path><path d="M0 292L15 305.7C30 319.3 60 346.7 90 332.3C120 318 150 262 180 255.7C210 249.3 240 292.7 270 287.2C300 281.7 330 227.3 360 201.8C390 176.3 420 179.7 450 183.8C480 188 510 193 540 195.3C570 197.7 600 197.3 630 202.2C660 207 690 217 720 252.7C750 288.3 780 349.7 810 375.8C840 402 870 393 885 388.5L900 384L900 0L885 0C870 0 840 0 810 0C780 0 750 0 720 0C690 0 660 0 630 0C600 0 570 0 540 0C510 0 480 0 450 0C420 0 390 0 360 0C330 0 300 0 270 0C240 0 210 0 180 0C150 0 120 0 90 0C60 0 30 0 15 0L0 0Z" fill="#30393e"></path><path d="M0 341L15 345.8C30 350.7 60 360.3 90 345C120 329.7 150 289.3 180 290.5C210 291.7 240 334.3 270 345.7C300 357 330 337 360 322.2C390 307.3 420 297.7 450 290.7C480 283.7 510 279.3 540 280.2C570 281 600 287 630 282C660 277 690 261 720 262.5C750 264 780 283 810 280.7C840 278.3 870 254.7 885 242.8L900 231L900 0L885 0C870 0 840 0 810 0C780 0 750 0 720 0C690 0 660 0 630 0C600 0 570 0 540 0C510 0 480 0 450 0C420 0 390 0 360 0C330 0 300 0 270 0C240 0 210 0 180 0C150 0 120 0 90 0C60 0 30 0 15 0L0 0Z" fill="#364148"></path><path d="M0 285L15 259.8C30 234.7 60 184.3 90 161.8C120 139.3 150 144.7 180 163.7C210 182.7 240 215.3 270 232.2C300 249 330 250 360 252.7C390 255.3 420 259.7 450 253.3C480 247 510 230 540 219C570 208 600 203 630 218.3C660 233.7 690 269.3 720 283.5C750 297.7 780 290.3 810 260.8C840 231.3 870 179.7 885 153.8L900 128L900 0L885 0C870 0 840 0 810 0C780 0 750 0 720 0C690 0 660 0 630 0C600 0 570 0 540 0C510 0 480 0 450 0C420 0 390 0 360 0C330 0 300 0 270 0C240 0 210 0 180 0C150 0 120 0 90 0C60 0 30 0 15 0L0 0Z" fill="#3d4a52"></path><path d="M0 181L15 190.2C30 199.3 60 217.7 90 216.5C120 215.3 150 194.7 180 171.7C210 148.7 240 123.3 270 136.5C300 149.7 330 201.3 360 222.3C390 243.3 420 233.7 450 229.7C480 225.7 510 227.3 540 220.2C570 213 600 197 630 190.7C660 184.3 690 187.7 720 187.3C750 187 780 183 810 173.3C840 163.7 870 148.3 885 140.7L900 133L900 0L885 0C870 0 840 0 810 0C780 0 750 0 720 0C690 0 660 0 630 0C600 0 570 0 540 0C510 0 480 0 450 0C420 0 390 0 360 0C330 0 300 0 270 0C240 0 210 0 180 0C150 0 120 0 90 0C60 0 30 0 15 0L0 0Z" fill="#44545d"></path><path d="M0 201L15 199.5C30 198 60 195 90 197.2C120 199.3 150 206.7 180 190.8C210 175 240 136 270 134.2C300 132.3 330 167.7 360 163.3C390 159 420 115 450 94.3C480 73.7 510 76.3 540 95.3C570 114.3 600 149.7 630 153.3C660 157 690 129 720 131.3C750 133.7 780 166.3 810 168.5C840 170.7 870 142.3 885 128.2L900 114L900 0L885 0C870 0 840 0 810 0C780 0 750 0 720 0C690 0 660 0 630 0C600 0 570 0 540 0C510 0 480 0 450 0C420 0 390 0 360 0C330 0 300 0 270 0C240 0 210 0 180 0C150 0 120 0 90 0C60 0 30 0 15 0L0 0Z" fill="#4b5d68"></path><path d="M0 77L15 82.3C30 87.7 60 98.3 90 97.5C120 96.7 150 84.3 180 84.2C210 84 240 96 270 93.3C300 90.7 330 73.3 360 63.7C390 54 420 52 450 55.2C480 58.3 510 66.7 540 70.7C570 74.7 600 74.3 630 88C660 101.7 690 129.3 720 130.8C750 132.3 780 107.7 810 97C840 86.3 870 89.7 885 91.3L900 93L900 0L885 0C870 0 840 0 810 0C780 0 750 0 720 0C690 0 660 0 630 0C600 0 570 0 540 0C510 0 480 0 450 0C420 0 390 0 360 0C330 0 300 0 270 0C240 0 210 0 180 0C150 0 120 0 90 0C60 0 30 0 15 0L0 0Z" fill="#526673"></path><path d="M0 32L15 38.2C30 44.3 60 56.7 90 67C120 77.3 150 85.7 180 81.3C210 77 240 60 270 47.3C300 34.7 330 26.3 360 32.5C390 38.7 420 59.3 450 64C480 68.7 510 57.3 540 53.8C570 50.3 600 54.7 630 59.3C660 64 690 69 720 76.5C750 84 780 94 810 94C840 94 870 84 885 79L900 74L900 0L885 0C870 0 840 0 810 0C780 0 750 0 720 0C690 0 660 0 630 0C600 0 570 0 540 0C510 0 480 0 450 0C420 0 390 0 360 0C330 0 300 0 270 0C240 0 210 0 180 0C150 0 120 0 90 0C60 0 30 0 15 0L0 0Z" fill="#59707e"></path></svg>