<svg id="visual" viewBox="0 0 900 900" width="900" height="900" xmlns="http://www.w3.org/2000/svg" xmlns:xlink="http://www.w3.org/1999/xlink" version="1.1"><rect x="0" y="0" width="900" height="900" fill="#000F0F"></rect><path d="M0 487L16.7 479.2C33.3 471.3 66.7 455.7 100 433.7C133.3 411.7 166.7 383.3 200 421.3C233.3 459.3 266.7 563.7 300 569.7C333.3 575.7 366.7 483.3 400 439.3C433.3 395.3 466.7 399.7 500 415.5C533.3 431.3 566.7 458.7 600 454.3C633.3 450 666.7 414 700 404.7C733.3 395.3 766.7 412.7 800 416C833.3 419.3 866.7 408.7 883.3 403.3L900 398L900 0L883.3 0C866.7 0 833.3 0 800 0C766.7 0 733.3 0 700 0C666.7 0 633.3 0 600 0C566.7 0 533.3 0 500 0C466.7 0 433.3 0 400 0C366.7 0 333.3 0 300 0C266.7 0 233.3 0 200 0C166.7 0 133.3 0 100 0C66.7 0 33.3 0 16.7 0L0 0Z" fill="#0f0f0f"></path><path d="M0 319L16.7 343.2C33.3 367.3 66.7 415.7 100 421.3C133.3 427 166.7 390 200 412.8C233.3 435.7 266.7 518.3 300 536.8C333.3 555.3 366.7 509.7 400 490.5C433.3 471.3 466.7 478.7 500 465.2C533.3 451.7 566.7 417.3 600 426.2C633.3 435 666.7 487 700 486.2C733.3 485.3 766.7 431.7 800 414.2C833.3 396.7 866.7 415.3 883.3 424.7L900 434L900 0L883.3 0C866.7 0 833.3 0 800 0C766.7 0 733.3 0 700 0C666.7 0 633.3 0 600 0C566.7 0 533.3 0 500 0C466.7 0 433.3 0 400 0C366.7 0 333.3 0 300 0C266.7 0 233.3 0 200 0C166.7 0 133.3 0 100 0C66.7 0 33.3 0 16.7 0L0 0Z" fill="#1f2519"></path><path d="M0 294L16.7 335.8C33.3 377.7 66.7 461.3 100 483.5C133.3 505.7 166.7 466.3 200 457C233.3 447.7 266.7 468.3 300 453.3C333.3 438.3 366.7 387.7 400 357.8C433.3 328 466.7 319 500 305.7C533.3 292.3 566.7 274.7 600 267C633.3 259.3 666.7 261.7 700 296C733.3 330.3 766.7 396.7 800 437.3C833.3 478 866.7 493 883.3 500.5L900 508L900 0L883.3 0C866.7 0 833.3 0 800 0C766.7 0 733.3 0 700 0C666.7 0 633.3 0 600 0C566.7 0 533.3 0 500 0C466.7 0 433.3 0 400 0C366.7 0 333.3 0 300 0C266.7 0 233.3 0 200 0C166.7 0 133.3 0 100 0C66.7 0 33.3 0 16.7 0L0 0Z" fill="#2e3b21"></path><path d="M0 416L16.7 391.2C33.3 366.3 66.7 316.7 100 294.7C133.3 272.7 166.7 278.3 200 295.8C233.3 313.3 266.7 342.7 300 346.5C333.3 350.3 366.7 328.7 400 302.3C433.3 276 466.7 245 500 268.3C533.3 291.7 566.7 369.3 600 392.8C633.3 416.3 666.7 385.7 700 364.5C733.3 343.3 766.7 331.7 800 308C833.3 284.3 866.7 248.7 883.3 230.8L900 213L900 0L883.3 0C866.7 0 833.3 0 800 0C766.7 0 733.3 0 700 0C666.7 0 633.3 0 600 0C566.7 0 533.3 0 500 0C466.7 0 433.3 0 400 0C366.7 0 333.3 0 300 0C266.7 0 233.3 0 200 0C166.7 0 133.3 0 100 0C66.7 0 33.3 0 16.7 0L0 0Z" fill="#3d522a"></path><path d="M0 337L16.7 335.8C33.3 334.7 66.7 332.3 100 324.7C133.3 317 166.7 304 200 312.3C233.3 320.7 266.7 350.3 300 345.2C333.3 340 366.7 300 400 302.5C433.3 305 466.7 350 500 363.7C533.3 377.3 566.7 359.7 600 346.7C633.3 333.7 666.7 325.3 700 306.7C733.3 288 766.7 259 800 266C833.3 273 866.7 316 883.3 337.5L900 359L900 0L883.3 0C866.7 0 833.3 0 800 0C766.7 0 733.3 0 700 0C666.7 0 633.3 0 600 0C566.7 0 533.3 0 500 0C466.7 0 433.3 0 400 0C366.7 0 333.3 0 300 0C266.7 0 233.3 0 200 0C166.7 0 133.3 0 100 0C66.7 0 33.3 0 16.7 0L0 0Z" fill="#4d6b32"></path><path d="M0 188L16.7 202C33.3 216 66.7 244 100 254.7C133.3 265.3 166.7 258.7 200 257.3C233.3 256 266.7 260 300 261C333.3 262 366.7 260 400 245.5C433.3 231 466.7 204 500 208.7C533.3 213.3 566.7 249.7 600 273.3C633.3 297 666.7 308 700 293.3C733.3 278.7 766.7 238.3 800 225.5C833.3 212.7 866.7 227.3 883.3 234.7L900 242L900 0L883.3 0C866.7 0 833.3 0 800 0C766.7 0 733.3 0 700 0C666.7 0 633.3 0 600 0C566.7 0 533.3 0 500 0C466.7 0 433.3 0 400 0C366.7 0 333.3 0 300 0C266.7 0 233.3 0 200 0C166.7 0 133.3 0 100 0C66.7 0 33.3 0 16.7 0L0 0Z" fill="#5d853a"></path><path d="M0 112L16.7 111.8C33.3 111.7 66.7 111.3 100 126.8C133.3 142.3 166.7 173.7 200 179.8C233.3 186 266.7 167 300 157.2C333.3 147.3 366.7 146.7 400 147.3C433.3 148 466.7 150 500 169.5C533.3 189 566.7 226 600 244C633.3 262 666.7 261 700 256C733.3 251 766.7 242 800 235.3C833.3 228.7 866.7 224.3 883.3 222.2L900 220L900 0L883.3 0C866.7 0 833.3 0 800 0C766.7 0 733.3 0 700 0C666.7 0 633.3 0 600 0C566.7 0 533.3 0 500 0C466.7 0 433.3 0 400 0C366.7 0 333.3 0 300 0C266.7 0 233.3 0 200 0C166.7 0 133.3 0 100 0C66.7 0 33.3 0 16.7 0L0 0Z" fill="#6ea042"></path><path d="M0 98L16.7 106.7C33.3 115.3 66.7 132.7 100 127.7C133.3 122.7 166.7 95.3 200 103.2C233.3 111 266.7 154 300 163C333.3 172 366.7 147 400 147C433.3 147 466.7 172 500 180.2C533.3 188.3 566.7 179.7 600 165.2C633.3 150.7 666.7 130.3 700 128.2C733.3 126 766.7 142 800 151.7C833.3 161.3 866.7 164.7 883.3 166.3L900 168L900 0L883.3 0C866.7 0 833.3 0 800 0C766.7 0 733.3 0 700 0C666.7 0 633.3 0 600 0C566.7 0 533.3 0 500 0C466.7 0 433.3 0 400 0C366.7 0 333.3 0 300 0C266.7 0 233.3 0 200 0C166.7 0 133.3 0 100 0C66.7 0 33.3 0 16.7 0L0 0Z" fill="#7fbb4b"></path><path d="M0 102L16.7 94.3C33.3 86.7 66.7 71.3 100 73.7C133.3 76 166.7 96 200 102.3C233.3 108.7 266.7 101.3 300 102.5C333.3 103.7 366.7 113.3 400 107C433.3 100.7 466.7 78.3 500 67.8C533.3 57.3 566.7 58.7 600 59.7C633.3 60.7 666.7 61.3 700 71.2C733.3 81 766.7 100 800 96.3C833.3 92.7 866.7 66.3 883.3 53.2L900 40L900 0L883.3 0C866.7 0 833.3 0 800 0C766.7 0 733.3 0 700 0C666.7 0 633.3 0 600 0C566.7 0 533.3 0 500 0C466.7 0 433.3 0 400 0C366.7 0 333.3 0 300 0C266.7 0 233.3 0 200 0C166.7 0 133.3 0 100 0C66.7 0 33.3 0 16.7 0L0 0Z" fill="#90d853"></path></svg>