<svg id="visual" viewBox="0 0 900 900" width="900" height="900" xmlns="http://www.w3.org/2000/svg" xmlns:xlink="http://www.w3.org/1999/xlink" version="1.1"><rect x="0" y="0" width="900" height="900" fill="#0F0F0F"></rect><path d="M0 735L16.7 692.5C33.3 650 66.7 565 100 563.8C133.3 562.7 166.7 645.3 200 688.8C233.3 732.3 266.7 736.7 300 682C333.3 627.3 366.7 513.7 400 431.5C433.3 349.3 466.7 298.7 500 253.7C533.3 208.7 566.7 169.3 600 242C633.3 314.7 666.7 499.3 700 581.5C733.3 663.7 766.7 643.3 800 609.2C833.3 575 866.7 527 883.3 503L900 479L900 0L883.3 0C866.7 0 833.3 0 800 0C766.7 0 733.3 0 700 0C666.7 0 633.3 0 600 0C566.7 0 533.3 0 500 0C466.7 0 433.3 0 400 0C366.7 0 333.3 0 300 0C266.7 0 233.3 0 200 0C166.7 0 133.3 0 100 0C66.7 0 33.3 0 16.7 0L0 0Z" fill="#0f0f0f"></path><path d="M0 287L16.7 316.7C33.3 346.3 66.7 405.7 100 377.2C133.3 348.7 166.7 232.3 200 242.2C233.3 252 266.7 388 300 478.3C333.3 568.7 366.7 613.3 400 634.8C433.3 656.3 466.7 654.7 500 625.2C533.3 595.7 566.7 538.3 600 548C633.3 557.7 666.7 634.3 700 609.3C733.3 584.3 766.7 457.7 800 400.5C833.3 343.3 866.7 355.7 883.3 361.8L900 368L900 0L883.3 0C866.7 0 833.3 0 800 0C766.7 0 733.3 0 700 0C666.7 0 633.3 0 600 0C566.7 0 533.3 0 500 0C466.7 0 433.3 0 400 0C366.7 0 333.3 0 300 0C266.7 0 233.3 0 200 0C166.7 0 133.3 0 100 0C66.7 0 33.3 0 16.7 0L0 0Z" fill="#0f1012"></path><path d="M0 591L16.7 556.3C33.3 521.7 66.7 452.3 100 394.2C133.3 336 166.7 289 200 247.3C233.3 205.7 266.7 169.3 300 224.3C333.3 279.3 366.7 425.7 400 485C433.3 544.3 466.7 516.7 500 493.8C533.3 471 566.7 453 600 405.3C633.3 357.7 666.7 280.3 700 299.8C733.3 319.3 766.7 435.7 800 468.5C833.3 501.3 866.7 450.7 883.3 425.3L900 400L900 0L883.3 0C866.7 0 833.3 0 800 0C766.7 0 733.3 0 700 0C666.7 0 633.3 0 600 0C566.7 0 533.3 0 500 0C466.7 0 433.3 0 400 0C366.7 0 333.3 0 300 0C266.7 0 233.3 0 200 0C166.7 0 133.3 0 100 0C66.7 0 33.3 0 16.7 0L0 0Z" fill="#101214"></path><path d="M0 129L16.7 158.3C33.3 187.7 66.7 246.3 100 303.2C133.3 360 166.7 415 200 427.3C233.3 439.7 266.7 409.3 300 406.5C333.3 403.7 366.7 428.3 400 389.3C433.3 350.3 466.7 247.7 500 224.5C533.3 201.3 566.7 257.7 600 249.3C633.3 241 666.7 168 700 183.7C733.3 199.3 766.7 303.7 800 342.3C833.3 381 866.7 354 883.3 340.5L900 327L900 0L883.3 0C866.7 0 833.3 0 800 0C766.7 0 733.3 0 700 0C666.7 0 633.3 0 600 0C566.7 0 533.3 0 500 0C466.7 0 433.3 0 400 0C366.7 0 333.3 0 300 0C266.7 0 233.3 0 200 0C166.7 0 133.3 0 100 0C66.7 0 33.3 0 16.7 0L0 0Z" fill="#101316"></path><path d="M0 320L16.7 311.3C33.3 302.7 66.7 285.3 100 306.3C133.3 327.3 166.7 386.7 200 389.2C233.3 391.7 266.7 337.3 300 318.7C333.3 300 366.7 317 400 318.8C433.3 320.7 466.7 307.3 500 323C533.3 338.7 566.7 383.3 600 402.2C633.3 421 666.7 414 700 358.8C733.3 303.7 766.7 200.3 800 203C833.3 205.7 866.7 314.3 883.3 368.7L900 423L900 0L883.3 0C866.7 0 833.3 0 800 0C766.7 0 733.3 0 700 0C666.7 0 633.3 0 600 0C566.7 0 533.3 0 500 0C466.7 0 433.3 0 400 0C366.7 0 333.3 0 300 0C266.7 0 233.3 0 200 0C166.7 0 133.3 0 100 0C66.7 0 33.3 0 16.7 0L0 0Z" fill="#111418"></path><path d="M0 130L16.7 140.2C33.3 150.3 66.7 170.7 100 178.8C133.3 187 166.7 183 200 202.7C233.3 222.3 266.7 265.7 300 255.5C333.3 245.3 366.7 181.7 400 175.5C433.3 169.3 466.7 220.7 500 216C533.3 211.3 566.7 150.7 600 171.2C633.3 191.7 666.7 293.3 700 339.8C733.3 386.3 766.7 377.7 800 329.7C833.3 281.7 866.7 194.3 883.3 150.7L900 107L900 0L883.3 0C866.7 0 833.3 0 800 0C766.7 0 733.3 0 700 0C666.7 0 633.3 0 600 0C566.7 0 533.3 0 500 0C466.7 0 433.3 0 400 0C366.7 0 333.3 0 300 0C266.7 0 233.3 0 200 0C166.7 0 133.3 0 100 0C66.7 0 33.3 0 16.7 0L0 0Z" fill="#11151a"></path><path d="M0 146L16.7 147.8C33.3 149.7 66.7 153.3 100 154.7C133.3 156 166.7 155 200 142.7C233.3 130.3 266.7 106.7 300 121.5C333.3 136.3 366.7 189.7 400 225.3C433.3 261 466.7 279 500 274.7C533.3 270.3 566.7 243.7 600 222.8C633.3 202 666.7 187 700 160.7C733.3 134.3 766.7 96.7 800 125.3C833.3 154 866.7 249 883.3 296.5L900 344L900 0L883.3 0C866.7 0 833.3 0 800 0C766.7 0 733.3 0 700 0C666.7 0 633.3 0 600 0C566.7 0 533.3 0 500 0C466.7 0 433.3 0 400 0C366.7 0 333.3 0 300 0C266.7 0 233.3 0 200 0C166.7 0 133.3 0 100 0C66.7 0 33.3 0 16.7 0L0 0Z" fill="#11171c"></path><path d="M0 313L16.7 293.8C33.3 274.7 66.7 236.3 100 206.2C133.3 176 166.7 154 200 134.5C233.3 115 266.7 98 300 122.5C333.3 147 366.7 213 400 221C433.3 229 466.7 179 500 143.5C533.3 108 566.7 87 600 104.8C633.3 122.7 666.7 179.3 700 205.3C733.3 231.3 766.7 226.7 800 243C833.3 259.3 866.7 296.7 883.3 315.3L900 334L900 0L883.3 0C866.7 0 833.3 0 800 0C766.7 0 733.3 0 700 0C666.7 0 633.3 0 600 0C566.7 0 533.3 0 500 0C466.7 0 433.3 0 400 0C366.7 0 333.3 0 300 0C266.7 0 233.3 0 200 0C166.7 0 133.3 0 100 0C66.7 0 33.3 0 16.7 0L0 0Z" fill="#11181e"></path><path d="M0 188L16.7 184C33.3 180 66.7 172 100 177C133.3 182 166.7 200 200 184.3C233.3 168.7 266.7 119.3 300 103.5C333.3 87.7 366.7 105.3 400 120.2C433.3 135 466.7 147 500 165.7C533.3 184.3 566.7 209.7 600 217.3C633.3 225 666.7 215 700 187.8C733.3 160.7 766.7 116.3 800 126.8C833.3 137.3 866.7 202.7 883.3 235.3L900 268L900 0L883.3 0C866.7 0 833.3 0 800 0C766.7 0 733.3 0 700 0C666.7 0 633.3 0 600 0C566.7 0 533.3 0 500 0C466.7 0 433.3 0 400 0C366.7 0 333.3 0 300 0C266.7 0 233.3 0 200 0C166.7 0 133.3 0 100 0C66.7 0 33.3 0 16.7 0L0 0Z" fill="#111920"></path><path d="M0 219L16.7 189.5C33.3 160 66.7 101 100 98.3C133.3 95.7 166.7 149.3 200 152.3C233.3 155.3 266.7 107.7 300 99.2C333.3 90.7 366.7 121.3 400 126.2C433.3 131 466.7 110 500 103.2C533.3 96.3 566.7 103.7 600 126.8C633.3 150 666.7 189 700 188.5C733.3 188 766.7 148 800 116.2C833.3 84.3 866.7 60.7 883.3 48.8L900 37L900 0L883.3 0C866.7 0 833.3 0 800 0C766.7 0 733.3 0 700 0C666.7 0 633.3 0 600 0C566.7 0 533.3 0 500 0C466.7 0 433.3 0 400 0C366.7 0 333.3 0 300 0C266.7 0 233.3 0 200 0C166.7 0 133.3 0 100 0C66.7 0 33.3 0 16.7 0L0 0Z" fill="#111a21"></path><path d="M0 43L16.7 38.8C33.3 34.7 66.7 26.3 100 37.3C133.3 48.3 166.7 78.7 200 81.5C233.3 84.3 266.7 59.7 300 67C333.3 74.3 366.7 113.7 400 127.7C433.3 141.7 466.7 130.3 500 115.7C533.3 101 566.7 83 600 72C633.3 61 666.7 57 700 68.7C733.3 80.3 766.7 107.7 800 111C833.3 114.3 866.7 93.7 883.3 83.3L900 73L900 0L883.3 0C866.7 0 833.3 0 800 0C766.7 0 733.3 0 700 0C666.7 0 633.3 0 600 0C566.7 0 533.3 0 500 0C466.7 0 433.3 0 400 0C366.7 0 333.3 0 300 0C266.7 0 233.3 0 200 0C166.7 0 133.3 0 100 0C66.7 0 33.3 0 16.7 0L0 0Z" fill="#111b23"></path><path d="M0 44L16.7 41.3C33.3 38.7 66.7 33.3 100 37.5C133.3 41.7 166.7 55.3 200 61.5C233.3 67.7 266.7 66.3 300 64.3C333.3 62.3 366.7 59.7 400 68.3C433.3 77 466.7 97 500 94.5C533.3 92 566.7 67 600 65.5C633.3 64 666.7 86 700 86.3C733.3 86.7 766.7 65.3 800 56.8C833.3 48.3 866.7 52.7 883.3 54.8L900 57L900 0L883.3 0C866.7 0 833.3 0 800 0C766.7 0 733.3 0 700 0C666.7 0 633.3 0 600 0C566.7 0 533.3 0 500 0C466.7 0 433.3 0 400 0C366.7 0 333.3 0 300 0C266.7 0 233.3 0 200 0C166.7 0 133.3 0 100 0C66.7 0 33.3 0 16.7 0L0 0Z" fill="#111c25"></path></svg>