<svg width="124" height="206" viewBox="0 0 124 206" fill="none" xmlns="http://www.w3.org/2000/svg">
<g id="Group 2" opacity="0.6">
<circle id="Ellipse 5" cx="122.313" cy="1.68708" r="1.68707" transform="rotate(90 122.313 1.68708)" fill="#2945FF"/>
<circle id="Ellipse 69" cx="122.313" cy="109.66" r="1.68707" transform="rotate(90 122.313 109.66)" fill="#2945FF"/>
<circle id="Ellipse 37" cx="68.327" cy="1.68708" r="1.68707" transform="rotate(90 68.327 1.68708)" fill="#2945FF"/>
<circle id="Ellipse 70" cx="68.327" cy="109.66" r="1.68707" transform="rotate(90 68.327 109.66)" fill="#2945FF"/>
<circle id="Ellipse 21" cx="95.3199" cy="1.68708" r="1.68707" transform="rotate(90 95.3199 1.68708)" fill="#2945FF"/>
<circle id="Ellipse 71" cx="95.3199" cy="109.66" r="1.68707" transform="rotate(90 95.3199 109.66)" fill="#2945FF"/>
<circle id="Ellipse 38" cx="41.334" cy="1.68708" r="1.68707" transform="rotate(90 41.334 1.68708)" fill="#2945FF"/>
<circle id="Ellipse 72" cx="41.334" cy="109.66" r="1.68707" transform="rotate(90 41.334 109.66)" fill="#2945FF"/>
<circle id="Ellipse 13" cx="108.816" cy="1.68708" r="1.68707" transform="rotate(90 108.816 1.68708)" fill="#2945FF"/>
<circle id="Ellipse 73" cx="108.816" cy="109.66" r="1.68707" transform="rotate(90 108.816 109.66)" fill="#2945FF"/>
<circle id="Ellipse 39" cx="54.8305" cy="1.68708" r="1.68707" transform="rotate(90 54.8305 1.68708)" fill="#2945FF"/>
<circle id="Ellipse 74" cx="54.8305" cy="109.66" r="1.68707" transform="rotate(90 54.8305 109.66)" fill="#2945FF"/>
<circle id="Ellipse 22" cx="81.8235" cy="1.68708" r="1.68707" transform="rotate(90 81.8235 1.68708)" fill="#2945FF"/>
<circle id="Ellipse 75" cx="81.8235" cy="109.66" r="1.68707" transform="rotate(90 81.8235 109.66)" fill="#2945FF"/>
<circle id="Ellipse 40" cx="27.8375" cy="1.68708" r="1.68707" transform="rotate(90 27.8375 1.68708)" fill="#2945FF"/>
<circle id="Ellipse 76" cx="27.8375" cy="109.66" r="1.68707" transform="rotate(90 27.8375 109.66)" fill="#2945FF"/>
<circle id="Ellipse 6" cx="122.313" cy="15.1837" r="1.68707" transform="rotate(90 122.313 15.1837)" fill="#2945FF"/>
<circle id="Ellipse 77" cx="122.313" cy="123.156" r="1.68707" transform="rotate(90 122.313 123.156)" fill="#2945FF"/>
<circle id="Ellipse 41" cx="68.327" cy="15.1837" r="1.68707" transform="rotate(90 68.327 15.1837)" fill="#2945FF"/>
<circle id="Ellipse 78" cx="68.327" cy="123.156" r="1.68707" transform="rotate(90 68.327 123.156)" fill="#2945FF"/>
<circle id="Ellipse 23" cx="95.3199" cy="15.1837" r="1.68707" transform="rotate(90 95.3199 15.1837)" fill="#2945FF"/>
<circle id="Ellipse 79" cx="95.3199" cy="123.156" r="1.68707" transform="rotate(90 95.3199 123.156)" fill="#2945FF"/>
<circle id="Ellipse 42" cx="41.334" cy="15.1837" r="1.68707" transform="rotate(90 41.334 15.1837)" fill="#2945FF"/>
<circle id="Ellipse 80" cx="41.334" cy="123.156" r="1.68707" transform="rotate(90 41.334 123.156)" fill="#2945FF"/>
<circle id="Ellipse 14" cx="108.816" cy="15.1837" r="1.68707" transform="rotate(90 108.816 15.1837)" fill="#2945FF"/>
<circle id="Ellipse 81" cx="108.816" cy="123.156" r="1.68707" transform="rotate(90 108.816 123.156)" fill="#2945FF"/>
<circle id="Ellipse 43" cx="54.8305" cy="15.1837" r="1.68707" transform="rotate(90 54.8305 15.1837)" fill="#2945FF"/>
<circle id="Ellipse 82" cx="54.8305" cy="123.156" r="1.68707" transform="rotate(90 54.8305 123.156)" fill="#2945FF"/>
<circle id="Ellipse 24" cx="81.8235" cy="15.1837" r="1.68707" transform="rotate(90 81.8235 15.1837)" fill="#2945FF"/>
<circle id="Ellipse 83" cx="81.8235" cy="123.156" r="1.68707" transform="rotate(90 81.8235 123.156)" fill="#2945FF"/>
<circle id="Ellipse 44" cx="27.8375" cy="15.1837" r="1.68707" transform="rotate(90 27.8375 15.1837)" fill="#2945FF"/>
<circle id="Ellipse 84" cx="27.8375" cy="123.156" r="1.68707" transform="rotate(90 27.8375 123.156)" fill="#2945FF"/>
<circle id="Ellipse 7" cx="122.313" cy="28.6803" r="1.68707" transform="rotate(90 122.313 28.6803)" fill="#2945FF"/>
<circle id="Ellipse 85" cx="122.313" cy="136.653" r="1.68707" transform="rotate(90 122.313 136.653)" fill="#2945FF"/>
<circle id="Ellipse 45" cx="68.327" cy="28.6802" r="1.68707" transform="rotate(90 68.327 28.6802)" fill="#2945FF"/>
<circle id="Ellipse 86" cx="68.327" cy="136.653" r="1.68707" transform="rotate(90 68.327 136.653)" fill="#2945FF"/>
<circle id="Ellipse 25" cx="95.3199" cy="28.6803" r="1.68707" transform="rotate(90 95.3199 28.6803)" fill="#2945FF"/>
<circle id="Ellipse 87" cx="95.3199" cy="136.653" r="1.68707" transform="rotate(90 95.3199 136.653)" fill="#2945FF"/>
<circle id="Ellipse 46" cx="41.334" cy="28.6803" r="1.68707" transform="rotate(90 41.334 28.6803)" fill="#2945FF"/>
<circle id="Ellipse 88" cx="41.334" cy="136.653" r="1.68707" transform="rotate(90 41.334 136.653)" fill="#2945FF"/>
<circle id="Ellipse 15" cx="108.816" cy="28.6802" r="1.68707" transform="rotate(90 108.816 28.6802)" fill="#2945FF"/>
<circle id="Ellipse 89" cx="108.816" cy="136.653" r="1.68707" transform="rotate(90 108.816 136.653)" fill="#2945FF"/>
<circle id="Ellipse 47" cx="54.8305" cy="28.6803" r="1.68707" transform="rotate(90 54.8305 28.6803)" fill="#2945FF"/>
<circle id="Ellipse 90" cx="54.8305" cy="136.653" r="1.68707" transform="rotate(90 54.8305 136.653)" fill="#2945FF"/>
<circle id="Ellipse 26" cx="81.8235" cy="28.6803" r="1.68707" transform="rotate(90 81.8235 28.6803)" fill="#2945FF"/>
<circle id="Ellipse 91" cx="81.8235" cy="136.653" r="1.68707" transform="rotate(90 81.8235 136.653)" fill="#2945FF"/>
<circle id="Ellipse 48" cx="27.8375" cy="28.6802" r="1.68707" transform="rotate(90 27.8375 28.6802)" fill="#2945FF"/>
<circle id="Ellipse 92" cx="27.8375" cy="136.653" r="1.68707" transform="rotate(90 27.8375 136.653)" fill="#2945FF"/>
<circle id="Ellipse 8" cx="122.313" cy="42.1767" r="1.68707" transform="rotate(90 122.313 42.1767)" fill="#2945FF"/>
<circle id="Ellipse 93" cx="122.313" cy="150.149" r="1.68707" transform="rotate(90 122.313 150.149)" fill="#2945FF"/>
<circle id="Ellipse 49" cx="68.327" cy="42.1767" r="1.68707" transform="rotate(90 68.327 42.1767)" fill="#2945FF"/>
<circle id="Ellipse 94" cx="68.327" cy="150.149" r="1.68707" transform="rotate(90 68.327 150.149)" fill="#2945FF"/>
<circle id="Ellipse 27" cx="95.3199" cy="42.1767" r="1.68707" transform="rotate(90 95.3199 42.1767)" fill="#2945FF"/>
<circle id="Ellipse 95" cx="95.3199" cy="150.149" r="1.68707" transform="rotate(90 95.3199 150.149)" fill="#2945FF"/>
<circle id="Ellipse 50" cx="41.334" cy="42.1767" r="1.68707" transform="rotate(90 41.334 42.1767)" fill="#2945FF"/>
<circle id="Ellipse 96" cx="41.334" cy="150.149" r="1.68707" transform="rotate(90 41.334 150.149)" fill="#2945FF"/>
<circle id="Ellipse 16" cx="108.816" cy="42.1767" r="1.68707" transform="rotate(90 108.816 42.1767)" fill="#2945FF"/>
<circle id="Ellipse 97" cx="108.816" cy="150.149" r="1.68707" transform="rotate(90 108.816 150.149)" fill="#2945FF"/>
<circle id="Ellipse 51" cx="54.8305" cy="42.1767" r="1.68707" transform="rotate(90 54.8305 42.1767)" fill="#2945FF"/>
<circle id="Ellipse 98" cx="54.8305" cy="150.149" r="1.68707" transform="rotate(90 54.8305 150.149)" fill="#2945FF"/>
<circle id="Ellipse 28" cx="81.8235" cy="42.1767" r="1.68707" transform="rotate(90 81.8235 42.1767)" fill="#2945FF"/>
<circle id="Ellipse 99" cx="81.8235" cy="150.149" r="1.68707" transform="rotate(90 81.8235 150.149)" fill="#2945FF"/>
<circle id="Ellipse 52" cx="27.8375" cy="42.1767" r="1.68707" transform="rotate(90 27.8375 42.1767)" fill="#2945FF"/>
<circle id="Ellipse 100" cx="27.8375" cy="150.149" r="1.68707" transform="rotate(90 27.8375 150.149)" fill="#2945FF"/>
<circle id="Ellipse 9" cx="122.313" cy="55.6733" r="1.68707" transform="rotate(90 122.313 55.6733)" fill="#2945FF"/>
<circle id="Ellipse 101" cx="122.313" cy="163.646" r="1.68707" transform="rotate(90 122.313 163.646)" fill="#2945FF"/>
<circle id="Ellipse 53" cx="68.327" cy="55.6733" r="1.68707" transform="rotate(90 68.327 55.6733)" fill="#2945FF"/>
<circle id="Ellipse 102" cx="68.327" cy="163.646" r="1.68707" transform="rotate(90 68.327 163.646)" fill="#2945FF"/>
<circle id="Ellipse 29" cx="95.3199" cy="55.6733" r="1.68707" transform="rotate(90 95.3199 55.6733)" fill="#2945FF"/>
<circle id="Ellipse 103" cx="95.3199" cy="163.646" r="1.68707" transform="rotate(90 95.3199 163.646)" fill="#2945FF"/>
<circle id="Ellipse 54" cx="41.334" cy="55.6733" r="1.68707" transform="rotate(90 41.334 55.6733)" fill="#2945FF"/>
<circle id="Ellipse 104" cx="41.334" cy="163.646" r="1.68707" transform="rotate(90 41.334 163.646)" fill="#2945FF"/>
<circle id="Ellipse 17" cx="108.816" cy="55.6733" r="1.68707" transform="rotate(90 108.816 55.6733)" fill="#2945FF"/>
<circle id="Ellipse 105" cx="108.816" cy="163.646" r="1.68707" transform="rotate(90 108.816 163.646)" fill="#2945FF"/>
<circle id="Ellipse 55" cx="54.8305" cy="55.6733" r="1.68707" transform="rotate(90 54.8305 55.6733)" fill="#2945FF"/>
<circle id="Ellipse 106" cx="54.8305" cy="163.646" r="1.68707" transform="rotate(90 54.8305 163.646)" fill="#2945FF"/>
<circle id="Ellipse 30" cx="81.8235" cy="55.6733" r="1.68707" transform="rotate(90 81.8235 55.6733)" fill="#2945FF"/>
<circle id="Ellipse 107" cx="81.8235" cy="163.646" r="1.68707" transform="rotate(90 81.8235 163.646)" fill="#2945FF"/>
<circle id="Ellipse 56" cx="27.8375" cy="55.6733" r="1.68707" transform="rotate(90 27.8375 55.6733)" fill="#2945FF"/>
<circle id="Ellipse 108" cx="27.8375" cy="163.646" r="1.68707" transform="rotate(90 27.8375 163.646)" fill="#2945FF"/>
<circle id="Ellipse 10" cx="122.313" cy="69.1699" r="1.68707" transform="rotate(90 122.313 69.1699)" fill="#2945FF"/>
<circle id="Ellipse 109" cx="122.313" cy="177.142" r="1.68707" transform="rotate(90 122.313 177.142)" fill="#2945FF"/>
<circle id="Ellipse 57" cx="68.327" cy="69.1699" r="1.68707" transform="rotate(90 68.327 69.1699)" fill="#2945FF"/>
<circle id="Ellipse 110" cx="68.327" cy="177.142" r="1.68707" transform="rotate(90 68.327 177.142)" fill="#2945FF"/>
<circle id="Ellipse 31" cx="95.3199" cy="69.1699" r="1.68707" transform="rotate(90 95.3199 69.1699)" fill="#2945FF"/>
<circle id="Ellipse 111" cx="95.3199" cy="177.142" r="1.68707" transform="rotate(90 95.3199 177.142)" fill="#2945FF"/>
<circle id="Ellipse 58" cx="41.334" cy="69.1699" r="1.68707" transform="rotate(90 41.334 69.1699)" fill="#2945FF"/>
<circle id="Ellipse 112" cx="41.334" cy="177.142" r="1.68707" transform="rotate(90 41.334 177.142)" fill="#2945FF"/>
<circle id="Ellipse 18" cx="108.816" cy="69.1699" r="1.68707" transform="rotate(90 108.816 69.1699)" fill="#2945FF"/>
<circle id="Ellipse 113" cx="108.816" cy="177.142" r="1.68707" transform="rotate(90 108.816 177.142)" fill="#2945FF"/>
<circle id="Ellipse 59" cx="54.8305" cy="69.1699" r="1.68707" transform="rotate(90 54.8305 69.1699)" fill="#2945FF"/>
<circle id="Ellipse 114" cx="54.8305" cy="177.142" r="1.68707" transform="rotate(90 54.8305 177.142)" fill="#2945FF"/>
<circle id="Ellipse 32" cx="81.8235" cy="69.1699" r="1.68707" transform="rotate(90 81.8235 69.1699)" fill="#2945FF"/>
<circle id="Ellipse 115" cx="81.8235" cy="177.142" r="1.68707" transform="rotate(90 81.8235 177.142)" fill="#2945FF"/>
<circle id="Ellipse 60" cx="27.8375" cy="69.1699" r="1.68707" transform="rotate(90 27.8375 69.1699)" fill="#2945FF"/>
<circle id="Ellipse 116" cx="27.8375" cy="177.142" r="1.68707" transform="rotate(90 27.8375 177.142)" fill="#2945FF"/>
<circle id="Ellipse 11" cx="122.313" cy="82.6665" r="1.68707" transform="rotate(90 122.313 82.6665)" fill="#2945FF"/>
<circle id="Ellipse 117" cx="122.313" cy="190.639" r="1.68707" transform="rotate(90 122.313 190.639)" fill="#2945FF"/>
<circle id="Ellipse 61" cx="68.327" cy="82.6665" r="1.68707" transform="rotate(90 68.327 82.6665)" fill="#2945FF"/>
<circle id="Ellipse 118" cx="68.327" cy="190.639" r="1.68707" transform="rotate(90 68.327 190.639)" fill="#2945FF"/>
<circle id="Ellipse 33" cx="95.3199" cy="82.6665" r="1.68707" transform="rotate(90 95.3199 82.6665)" fill="#2945FF"/>
<circle id="Ellipse 119" cx="95.3199" cy="190.639" r="1.68707" transform="rotate(90 95.3199 190.639)" fill="#2945FF"/>
<circle id="Ellipse 62" cx="41.334" cy="82.6665" r="1.68707" transform="rotate(90 41.334 82.6665)" fill="#2945FF"/>
<circle id="Ellipse 120" cx="41.334" cy="190.639" r="1.68707" transform="rotate(90 41.334 190.639)" fill="#2945FF"/>
<circle id="Ellipse 19" cx="108.816" cy="82.6665" r="1.68707" transform="rotate(90 108.816 82.6665)" fill="#2945FF"/>
<circle id="Ellipse 121" cx="108.816" cy="190.639" r="1.68707" transform="rotate(90 108.816 190.639)" fill="#2945FF"/>
<circle id="Ellipse 63" cx="54.8305" cy="82.6665" r="1.68707" transform="rotate(90 54.8305 82.6665)" fill="#2945FF"/>
<circle id="Ellipse 122" cx="54.8305" cy="190.639" r="1.68707" transform="rotate(90 54.8305 190.639)" fill="#2945FF"/>
<circle id="Ellipse 34" cx="81.8235" cy="82.6665" r="1.68707" transform="rotate(90 81.8235 82.6665)" fill="#2945FF"/>
<circle id="Ellipse 123" cx="81.8235" cy="190.639" r="1.68707" transform="rotate(90 81.8235 190.639)" fill="#2945FF"/>
<circle id="Ellipse 64" cx="27.8375" cy="82.6665" r="1.68707" transform="rotate(90 27.8375 82.6665)" fill="#2945FF"/>
<circle id="Ellipse 124" cx="27.8375" cy="190.639" r="1.68707" transform="rotate(90 27.8375 190.639)" fill="#2945FF"/>
<circle id="Ellipse 12" cx="122.313" cy="96.1631" r="1.68707" transform="rotate(90 122.313 96.1631)" fill="#2945FF"/>
<circle id="Ellipse 125" cx="122.313" cy="204.136" r="1.68707" transform="rotate(90 122.313 204.136)" fill="#2945FF"/>
<circle id="Ellipse 65" cx="68.327" cy="96.1631" r="1.68707" transform="rotate(90 68.327 96.1631)" fill="#2945FF"/>
<circle id="Ellipse 126" cx="68.327" cy="204.136" r="1.68707" transform="rotate(90 68.327 204.136)" fill="#2945FF"/>
<circle id="Ellipse 35" cx="95.3199" cy="96.1631" r="1.68707" transform="rotate(90 95.3199 96.1631)" fill="#2945FF"/>
<circle id="Ellipse 127" cx="95.3199" cy="204.136" r="1.68707" transform="rotate(90 95.3199 204.136)" fill="#2945FF"/>
<circle id="Ellipse 66" cx="41.334" cy="96.1631" r="1.68707" transform="rotate(90 41.334 96.1631)" fill="#2945FF"/>
<circle id="Ellipse 128" cx="41.334" cy="204.136" r="1.68707" transform="rotate(90 41.334 204.136)" fill="#2945FF"/>
<circle id="Ellipse 20" cx="108.816" cy="96.1631" r="1.68707" transform="rotate(90 108.816 96.1631)" fill="#2945FF"/>
<circle id="Ellipse 129" cx="108.816" cy="204.136" r="1.68707" transform="rotate(90 108.816 204.136)" fill="#2945FF"/>
<circle id="Ellipse 67" cx="54.8305" cy="96.1631" r="1.68707" transform="rotate(90 54.8305 96.1631)" fill="#2945FF"/>
<circle id="Ellipse 130" cx="54.8305" cy="204.136" r="1.68707" transform="rotate(90 54.8305 204.136)" fill="#2945FF"/>
<circle id="Ellipse 36" cx="81.8235" cy="96.1631" r="1.68707" transform="rotate(90 81.8235 96.1631)" fill="#2945FF"/>
<circle id="Ellipse 131" cx="81.8235" cy="204.136" r="1.68707" transform="rotate(90 81.8235 204.136)" fill="#2945FF"/>
<circle id="Ellipse 68" cx="27.8375" cy="96.1631" r="1.68707" transform="rotate(90 27.8375 96.1631)" fill="#2945FF"/>
<circle id="Ellipse 132" cx="27.8375" cy="204.136" r="1.68707" transform="rotate(90 27.8375 204.136)" fill="#2945FF"/>
<circle id="Ellipse 133" cx="15.1845" cy="1.68708" r="1.68707" transform="rotate(90 15.1845 1.68708)" fill="#2945FF"/>
<circle id="Ellipse 134" cx="15.1845" cy="109.66" r="1.68707" transform="rotate(90 15.1845 109.66)" fill="#2945FF"/>
<circle id="Ellipse 135" cx="1.68799" cy="1.68708" r="1.68707" transform="rotate(90 1.68799 1.68708)" fill="#2945FF"/>
<circle id="Ellipse 136" cx="1.68799" cy="109.66" r="1.68707" transform="rotate(90 1.68799 109.66)" fill="#2945FF"/>
<circle id="Ellipse 137" cx="15.1845" cy="15.1837" r="1.68707" transform="rotate(90 15.1845 15.1837)" fill="#2945FF"/>
<circle id="Ellipse 138" cx="15.1845" cy="123.156" r="1.68707" transform="rotate(90 15.1845 123.156)" fill="#2945FF"/>
<circle id="Ellipse 139" cx="1.68799" cy="15.1837" r="1.68707" transform="rotate(90 1.68799 15.1837)" fill="#2945FF"/>
<circle id="Ellipse 140" cx="1.68799" cy="123.156" r="1.68707" transform="rotate(90 1.68799 123.156)" fill="#2945FF"/>
<circle id="Ellipse 141" cx="15.1845" cy="28.6803" r="1.68707" transform="rotate(90 15.1845 28.6803)" fill="#2945FF"/>
<circle id="Ellipse 142" cx="15.1845" cy="136.653" r="1.68707" transform="rotate(90 15.1845 136.653)" fill="#2945FF"/>
<circle id="Ellipse 143" cx="1.68799" cy="28.6803" r="1.68707" transform="rotate(90 1.68799 28.6803)" fill="#2945FF"/>
<circle id="Ellipse 144" cx="1.68799" cy="136.653" r="1.68707" transform="rotate(90 1.68799 136.653)" fill="#2945FF"/>
<circle id="Ellipse 145" cx="15.1845" cy="42.1767" r="1.68707" transform="rotate(90 15.1845 42.1767)" fill="#2945FF"/>
<circle id="Ellipse 146" cx="15.1845" cy="150.149" r="1.68707" transform="rotate(90 15.1845 150.149)" fill="#2945FF"/>
<circle id="Ellipse 147" cx="1.68799" cy="42.1767" r="1.68707" transform="rotate(90 1.68799 42.1767)" fill="#2945FF"/>
<circle id="Ellipse 148" cx="1.68799" cy="150.149" r="1.68707" transform="rotate(90 1.68799 150.149)" fill="#2945FF"/>
<circle id="Ellipse 149" cx="15.1845" cy="55.6733" r="1.68707" transform="rotate(90 15.1845 55.6733)" fill="#2945FF"/>
<circle id="Ellipse 150" cx="15.1845" cy="163.646" r="1.68707" transform="rotate(90 15.1845 163.646)" fill="#2945FF"/>
<circle id="Ellipse 151" cx="1.68799" cy="55.6733" r="1.68707" transform="rotate(90 1.68799 55.6733)" fill="#2945FF"/>
<circle id="Ellipse 152" cx="1.68799" cy="163.646" r="1.68707" transform="rotate(90 1.68799 163.646)" fill="#2945FF"/>
<circle id="Ellipse 153" cx="15.1845" cy="69.1699" r="1.68707" transform="rotate(90 15.1845 69.1699)" fill="#2945FF"/>
<circle id="Ellipse 154" cx="15.1845" cy="177.142" r="1.68707" transform="rotate(90 15.1845 177.142)" fill="#2945FF"/>
<circle id="Ellipse 155" cx="1.68799" cy="69.1699" r="1.68707" transform="rotate(90 1.68799 69.1699)" fill="#2945FF"/>
<circle id="Ellipse 156" cx="1.68799" cy="177.142" r="1.68707" transform="rotate(90 1.68799 177.142)" fill="#2945FF"/>
<circle id="Ellipse 157" cx="15.1845" cy="82.6665" r="1.68707" transform="rotate(90 15.1845 82.6665)" fill="#2945FF"/>
<circle id="Ellipse 158" cx="15.1845" cy="190.639" r="1.68707" transform="rotate(90 15.1845 190.639)" fill="#2945FF"/>
<circle id="Ellipse 159" cx="1.68799" cy="82.6665" r="1.68707" transform="rotate(90 1.68799 82.6665)" fill="#2945FF"/>
<circle id="Ellipse 160" cx="1.68799" cy="190.639" r="1.68707" transform="rotate(90 1.68799 190.639)" fill="#2945FF"/>
<circle id="Ellipse 161" cx="15.1845" cy="96.1631" r="1.68707" transform="rotate(90 15.1845 96.1631)" fill="#2945FF"/>
<circle id="Ellipse 162" cx="15.1845" cy="204.136" r="1.68707" transform="rotate(90 15.1845 204.136)" fill="#2945FF"/>
<circle id="Ellipse 163" cx="1.68799" cy="96.1631" r="1.68707" transform="rotate(90 1.68799 96.1631)" fill="#2945FF"/>
<circle id="Ellipse 164" cx="1.68799" cy="204.136" r="1.68707" transform="rotate(90 1.68799 204.136)" fill="#2945FF"/>
</g>
</svg>
