<svg id="visual" viewBox="0 0 900 900" width="900" height="900" xmlns="http://www.w3.org/2000/svg" xmlns:xlink="http://www.w3.org/1999/xlink" version="1.1"><rect x="0" y="0" width="900" height="900" fill="#0F0F0F"></rect><path d="M0 519L15 539C30 559 60 599 90 607.7C120 616.3 150 593.7 180 578.3C210 563 240 555 270 535.3C300 515.7 330 484.3 360 460.3C390 436.3 420 419.7 450 448.8C480 478 510 553 540 580C570 607 600 586 630 532.7C660 479.3 690 393.7 720 376.8C750 360 780 412 810 456C840 500 870 536 885 554L900 572L900 0L885 0C870 0 840 0 810 0C780 0 750 0 720 0C690 0 660 0 630 0C600 0 570 0 540 0C510 0 480 0 450 0C420 0 390 0 360 0C330 0 300 0 270 0C240 0 210 0 180 0C150 0 120 0 90 0C60 0 30 0 15 0L0 0Z" fill="#0f0f0f"></path><path d="M0 377L15 360.8C30 344.7 60 312.3 90 345.2C120 378 150 476 180 493C210 510 240 446 270 420.7C300 395.3 330 408.7 360 388.8C390 369 420 316 450 331.7C480 347.3 510 431.7 540 467.7C570 503.7 600 491.3 630 485.3C660 479.3 690 479.7 720 483.3C750 487 780 494 810 468.8C840 443.7 870 386.3 885 357.7L900 329L900 0L885 0C870 0 840 0 810 0C780 0 750 0 720 0C690 0 660 0 630 0C600 0 570 0 540 0C510 0 480 0 450 0C420 0 390 0 360 0C330 0 300 0 270 0C240 0 210 0 180 0C150 0 120 0 90 0C60 0 30 0 15 0L0 0Z" fill="#171211"></path><path d="M0 302L15 303C30 304 60 306 90 290C120 274 150 240 180 279.8C210 319.7 240 433.3 270 488C300 542.7 330 538.3 360 486C390 433.7 420 333.3 450 332.5C480 331.7 510 430.3 540 477.8C570 525.3 600 521.7 630 484.2C660 446.7 690 375.3 720 379.8C750 384.3 780 464.7 810 458.3C840 452 870 359 885 312.5L900 266L900 0L885 0C870 0 840 0 810 0C780 0 750 0 720 0C690 0 660 0 630 0C600 0 570 0 540 0C510 0 480 0 450 0C420 0 390 0 360 0C330 0 300 0 270 0C240 0 210 0 180 0C150 0 120 0 90 0C60 0 30 0 15 0L0 0Z" fill="#1e1414"></path><path d="M0 229L15 258C30 287 60 345 90 369C120 393 150 383 180 347.5C210 312 240 251 270 259.8C300 268.7 330 347.3 360 370.7C390 394 420 362 450 363.2C480 364.3 510 398.7 540 420.5C570 442.3 600 451.7 630 409.3C660 367 690 273 720 262.5C750 252 780 325 810 371.2C840 417.3 870 436.7 885 446.3L900 456L900 0L885 0C870 0 840 0 810 0C780 0 750 0 720 0C690 0 660 0 630 0C600 0 570 0 540 0C510 0 480 0 450 0C420 0 390 0 360 0C330 0 300 0 270 0C240 0 210 0 180 0C150 0 120 0 90 0C60 0 30 0 15 0L0 0Z" fill="#241616"></path><path d="M0 356L15 342.2C30 328.3 60 300.7 90 292C120 283.3 150 293.7 180 274.2C210 254.7 240 205.3 270 206.5C300 207.7 330 259.3 360 293C390 326.7 420 342.3 450 323C480 303.7 510 249.3 540 265.7C570 282 600 369 630 402.5C660 436 690 416 720 384.3C750 352.7 780 309.3 810 303C840 296.7 870 327.3 885 342.7L900 358L900 0L885 0C870 0 840 0 810 0C780 0 750 0 720 0C690 0 660 0 630 0C600 0 570 0 540 0C510 0 480 0 450 0C420 0 390 0 360 0C330 0 300 0 270 0C240 0 210 0 180 0C150 0 120 0 90 0C60 0 30 0 15 0L0 0Z" fill="#2a1817"></path><path d="M0 397L15 360.8C30 324.7 60 252.3 90 234.8C120 217.3 150 254.7 180 275.5C210 296.3 240 300.7 270 291.3C300 282 330 259 360 247.2C390 235.3 420 234.7 450 260.5C480 286.3 510 338.7 540 323.5C570 308.3 600 225.7 630 208.8C660 192 690 241 720 248.5C750 256 780 222 810 210.8C840 199.7 870 211.3 885 217.2L900 223L900 0L885 0C870 0 840 0 810 0C780 0 750 0 720 0C690 0 660 0 630 0C600 0 570 0 540 0C510 0 480 0 450 0C420 0 390 0 360 0C330 0 300 0 270 0C240 0 210 0 180 0C150 0 120 0 90 0C60 0 30 0 15 0L0 0Z" fill="#311a19"></path><path d="M0 179L15 198.7C30 218.3 60 257.7 90 263.7C120 269.7 150 242.3 180 221.8C210 201.3 240 187.7 270 197.2C300 206.7 330 239.3 360 245.8C390 252.3 420 232.7 450 218.8C480 205 510 197 540 191.8C570 186.7 600 184.3 630 175.3C660 166.3 690 150.7 720 177.7C750 204.7 780 274.3 810 308.8C840 343.3 870 342.7 885 342.3L900 342L900 0L885 0C870 0 840 0 810 0C780 0 750 0 720 0C690 0 660 0 630 0C600 0 570 0 540 0C510 0 480 0 450 0C420 0 390 0 360 0C330 0 300 0 270 0C240 0 210 0 180 0C150 0 120 0 90 0C60 0 30 0 15 0L0 0Z" fill="#371c1b"></path><path d="M0 178L15 167.2C30 156.3 60 134.7 90 141.5C120 148.3 150 183.7 180 208.8C210 234 240 249 270 243.5C300 238 330 212 360 218.2C390 224.3 420 262.7 450 257.7C480 252.7 510 204.3 540 190.3C570 176.3 600 196.7 630 201.8C660 207 690 197 720 208.7C750 220.3 780 253.7 810 245.8C840 238 870 189 885 164.5L900 140L900 0L885 0C870 0 840 0 810 0C780 0 750 0 720 0C690 0 660 0 630 0C600 0 570 0 540 0C510 0 480 0 450 0C420 0 390 0 360 0C330 0 300 0 270 0C240 0 210 0 180 0C150 0 120 0 90 0C60 0 30 0 15 0L0 0Z" fill="#3e1e1d"></path><path d="M0 131L15 145.2C30 159.3 60 187.7 90 197.5C120 207.3 150 198.7 180 186C210 173.3 240 156.7 270 162.7C300 168.7 330 197.3 360 199C390 200.7 420 175.3 450 157.2C480 139 510 128 540 132.7C570 137.3 600 157.7 630 168.8C660 180 690 182 720 181.2C750 180.3 780 176.7 810 164C840 151.3 870 129.7 885 118.8L900 108L900 0L885 0C870 0 840 0 810 0C780 0 750 0 720 0C690 0 660 0 630 0C600 0 570 0 540 0C510 0 480 0 450 0C420 0 390 0 360 0C330 0 300 0 270 0C240 0 210 0 180 0C150 0 120 0 90 0C60 0 30 0 15 0L0 0Z" fill="#451f1e"></path><path d="M0 154L15 161C30 168 60 182 90 181.8C120 181.7 150 167.3 180 151C210 134.7 240 116.3 270 102.7C300 89 330 80 360 82.5C390 85 420 99 450 104.7C480 110.3 510 107.7 540 102.7C570 97.7 600 90.3 630 82.8C660 75.3 690 67.7 720 77.5C750 87.3 780 114.7 810 123.8C840 133 870 124 885 119.5L900 115L900 0L885 0C870 0 840 0 810 0C780 0 750 0 720 0C690 0 660 0 630 0C600 0 570 0 540 0C510 0 480 0 450 0C420 0 390 0 360 0C330 0 300 0 270 0C240 0 210 0 180 0C150 0 120 0 90 0C60 0 30 0 15 0L0 0Z" fill="#4c2120"></path><path d="M0 119L15 114.3C30 109.7 60 100.3 90 89.8C120 79.3 150 67.7 180 72.3C210 77 240 98 270 102.7C300 107.3 330 95.7 360 84.7C390 73.7 420 63.3 450 60C480 56.7 510 60.3 540 70.7C570 81 600 98 630 95.2C660 92.3 690 69.7 720 74.5C750 79.3 780 111.7 810 116.8C840 122 870 100 885 89L900 78L900 0L885 0C870 0 840 0 810 0C780 0 750 0 720 0C690 0 660 0 630 0C600 0 570 0 540 0C510 0 480 0 450 0C420 0 390 0 360 0C330 0 300 0 270 0C240 0 210 0 180 0C150 0 120 0 90 0C60 0 30 0 15 0L0 0Z" fill="#532222"></path><path d="M0 86L15 85.7C30 85.3 60 84.7 90 74.7C120 64.7 150 45.3 180 37.2C210 29 240 32 270 35.8C300 39.7 330 44.3 360 42.7C390 41 420 33 450 38.7C480 44.3 510 63.7 540 70.8C570 78 600 73 630 69.7C660 66.3 690 64.7 720 61.5C750 58.3 780 53.7 810 54.8C840 56 870 63 885 66.5L900 70L900 0L885 0C870 0 840 0 810 0C780 0 750 0 720 0C690 0 660 0 630 0C600 0 570 0 540 0C510 0 480 0 450 0C420 0 390 0 360 0C330 0 300 0 270 0C240 0 210 0 180 0C150 0 120 0 90 0C60 0 30 0 15 0L0 0Z" fill="#5a2424"></path></svg>