<svg id="visual" viewBox="0 0 900 900" width="900" height="900" xmlns="http://www.w3.org/2000/svg" xmlns:xlink="http://www.w3.org/1999/xlink" version="1.1"><rect x="0" y="0" width="900" height="900" fill="#0f0f0f"></rect><path d="M0 483L21.5 484.5C43 486 86 489 128.8 497.2C171.7 505.3 214.3 518.7 257.2 513.5C300 508.3 343 484.7 385.8 453.3C428.7 422 471.3 383 514.2 371.3C557 359.7 600 375.3 642.8 409.8C685.7 444.3 728.3 497.7 771.2 512.8C814 528 857 505 878.5 493.5L900 482L900 0L878.5 0C857 0 814 0 771.2 0C728.3 0 685.7 0 642.8 0C600 0 557 0 514.2 0C471.3 0 428.7 0 385.8 0C343 0 300 0 257.2 0C214.3 0 171.7 0 128.8 0C86 0 43 0 21.5 0L0 0Z" fill="#0f0f0f"></path><path d="M0 308L21.5 352.8C43 397.7 86 487.3 128.8 507.8C171.7 528.3 214.3 479.7 257.2 458.5C300 437.3 343 443.7 385.8 415C428.7 386.3 471.3 322.7 514.2 342.8C557 363 600 467 642.8 514C685.7 561 728.3 551 771.2 522.3C814 493.7 857 446.3 878.5 422.7L900 399L900 0L878.5 0C857 0 814 0 771.2 0C728.3 0 685.7 0 642.8 0C600 0 557 0 514.2 0C471.3 0 428.7 0 385.8 0C343 0 300 0 257.2 0C214.3 0 171.7 0 128.8 0C86 0 43 0 21.5 0L0 0Z" fill="#232324"></path><path d="M0 273L21.5 298.5C43 324 86 375 128.8 385.8C171.7 396.7 214.3 367.3 257.2 334.2C300 301 343 264 385.8 280.8C428.7 297.7 471.3 368.3 514.2 410C557 451.7 600 464.3 642.8 438.3C685.7 412.3 728.3 347.7 771.2 319.7C814 291.7 857 300.3 878.5 304.7L900 309L900 0L878.5 0C857 0 814 0 771.2 0C728.3 0 685.7 0 642.8 0C600 0 557 0 514.2 0C471.3 0 428.7 0 385.8 0C343 0 300 0 257.2 0C214.3 0 171.7 0 128.8 0C86 0 43 0 21.5 0L0 0Z" fill="#363739"></path><path d="M0 239L21.5 237.8C43 236.7 86 234.3 128.8 228.2C171.7 222 214.3 212 257.2 229.5C300 247 343 292 385.8 326.3C428.7 360.7 471.3 384.3 514.2 394C557 403.7 600 399.3 642.8 361.3C685.7 323.3 728.3 251.7 771.2 262.3C814 273 857 366 878.5 412.5L900 459L900 0L878.5 0C857 0 814 0 771.2 0C728.3 0 685.7 0 642.8 0C600 0 557 0 514.2 0C471.3 0 428.7 0 385.8 0C343 0 300 0 257.2 0C214.3 0 171.7 0 128.8 0C86 0 43 0 21.5 0L0 0Z" fill="#4b4d4f"></path><path d="M0 342L21.5 349.3C43 356.7 86 371.3 128.8 361.2C171.7 351 214.3 316 257.2 311C300 306 343 331 385.8 338.8C428.7 346.7 471.3 337.3 514.2 310.8C557 284.3 600 240.7 642.8 219.5C685.7 198.3 728.3 199.7 771.2 212.8C814 226 857 251 878.5 263.5L900 276L900 0L878.5 0C857 0 814 0 771.2 0C728.3 0 685.7 0 642.8 0C600 0 557 0 514.2 0C471.3 0 428.7 0 385.8 0C343 0 300 0 257.2 0C214.3 0 171.7 0 128.8 0C86 0 43 0 21.5 0L0 0Z" fill="#616366"></path><path d="M0 117L21.5 128C43 139 86 161 128.8 192.2C171.7 223.3 214.3 263.7 257.2 255.3C300 247 343 190 385.8 187.8C428.7 185.7 471.3 238.3 514.2 242.2C557 246 600 201 642.8 176.3C685.7 151.7 728.3 147.3 771.2 158.2C814 169 857 195 878.5 208L900 221L900 0L878.5 0C857 0 814 0 771.2 0C728.3 0 685.7 0 642.8 0C600 0 557 0 514.2 0C471.3 0 428.7 0 385.8 0C343 0 300 0 257.2 0C214.3 0 171.7 0 128.8 0C86 0 43 0 21.5 0L0 0Z" fill="#787a7e"></path><path d="M0 235L21.5 209.7C43 184.3 86 133.7 128.8 125C171.7 116.3 214.3 149.7 257.2 179.8C300 210 343 237 385.8 247C428.7 257 471.3 250 514.2 225.2C557 200.3 600 157.7 642.8 151.7C685.7 145.7 728.3 176.3 771.2 183C814 189.7 857 172.3 878.5 163.7L900 155L900 0L878.5 0C857 0 814 0 771.2 0C728.3 0 685.7 0 642.8 0C600 0 557 0 514.2 0C471.3 0 428.7 0 385.8 0C343 0 300 0 257.2 0C214.3 0 171.7 0 128.8 0C86 0 43 0 21.5 0L0 0Z" fill="#8f9297"></path><path d="M0 158L21.5 142.8C43 127.7 86 97.3 128.8 88.5C171.7 79.7 214.3 92.3 257.2 113.5C300 134.7 343 164.3 385.8 156.8C428.7 149.3 471.3 104.7 514.2 102.5C557 100.3 600 140.7 642.8 141.8C685.7 143 728.3 105 771.2 95.2C814 85.3 857 103.7 878.5 112.8L900 122L900 0L878.5 0C857 0 814 0 771.2 0C728.3 0 685.7 0 642.8 0C600 0 557 0 514.2 0C471.3 0 428.7 0 385.8 0C343 0 300 0 257.2 0C214.3 0 171.7 0 128.8 0C86 0 43 0 21.5 0L0 0Z" fill="#a7abb1"></path><path d="M0 114L21.5 112.5C43 111 86 108 128.8 97.2C171.7 86.3 214.3 67.7 257.2 71C300 74.3 343 99.7 385.8 98C428.7 96.3 471.3 67.7 514.2 54.8C557 42 600 45 642.8 52.7C685.7 60.3 728.3 72.7 771.2 81.7C814 90.7 857 96.3 878.5 99.2L900 102L900 0L878.5 0C857 0 814 0 771.2 0C728.3 0 685.7 0 642.8 0C600 0 557 0 514.2 0C471.3 0 428.7 0 385.8 0C343 0 300 0 257.2 0C214.3 0 171.7 0 128.8 0C86 0 43 0 21.5 0L0 0Z" fill="#c0c5cb"></path></svg>