<svg id="visual" viewBox="0 0 900 900" width="900" height="900" xmlns="http://www.w3.org/2000/svg" xmlns:xlink="http://www.w3.org/1999/xlink" version="1.1"><rect x="0" y="0" width="900" height="900" fill="#0f0f0f"></rect><path d="M0 301L25 303.7C50 306.3 100 311.7 150 354.7C200 397.7 250 478.3 300 473.5C350 468.7 400 378.3 450 330.7C500 283 550 278 600 343.7C650 409.3 700 545.7 750 574.8C800 604 850 526 875 487L900 448L900 0L875 0C850 0 800 0 750 0C700 0 650 0 600 0C550 0 500 0 450 0C400 0 350 0 300 0C250 0 200 0 150 0C100 0 50 0 25 0L0 0Z" fill="#0f0f0f"></path><path d="M0 191L25 232.2C50 273.3 100 355.7 150 392.2C200 428.7 250 419.3 300 406.2C350 393 400 376 450 404.2C500 432.3 550 505.7 600 481.5C650 457.3 700 335.7 750 279.2C800 222.7 850 231.3 875 235.7L900 240L900 0L875 0C850 0 800 0 750 0C700 0 650 0 600 0C550 0 500 0 450 0C400 0 350 0 300 0C250 0 200 0 150 0C100 0 50 0 25 0L0 0Z" fill="#21211e"></path><path d="M0 336L25 313.5C50 291 100 246 150 219.5C200 193 250 185 300 197.3C350 209.7 400 242.3 450 239.3C500 236.3 550 197.7 600 244C650 290.3 700 421.7 750 457.3C800 493 850 433 875 403L900 373L900 0L875 0C850 0 800 0 750 0C700 0 650 0 600 0C550 0 500 0 450 0C400 0 350 0 300 0C250 0 200 0 150 0C100 0 50 0 25 0L0 0Z" fill="#32322c"></path><path d="M0 213L25 243.7C50 274.3 100 335.7 150 356.2C200 376.7 250 356.3 300 371.2C350 386 400 436 450 459.2C500 482.3 550 478.7 600 464.5C650 450.3 700 425.7 750 410C800 394.3 850 387.7 875 384.3L900 381L900 0L875 0C850 0 800 0 750 0C700 0 650 0 600 0C550 0 500 0 450 0C400 0 350 0 300 0C250 0 200 0 150 0C100 0 50 0 25 0L0 0Z" fill="#44443b"></path><path d="M0 269L25 260.3C50 251.7 100 234.3 150 229.8C200 225.3 250 233.7 300 225.3C350 217 400 192 450 177.8C500 163.7 550 160.3 600 198.5C650 236.7 700 316.3 750 339.5C800 362.7 850 329.3 875 312.7L900 296L900 0L875 0C850 0 800 0 750 0C700 0 650 0 600 0C550 0 500 0 450 0C400 0 350 0 300 0C250 0 200 0 150 0C100 0 50 0 25 0L0 0Z" fill="#57584b"></path><path d="M0 226L25 250.2C50 274.3 100 322.7 150 338.7C200 354.7 250 338.3 300 299C350 259.7 400 197.3 450 172.2C500 147 550 159 600 204.5C650 250 700 329 750 325C800 321 850 234 875 190.5L900 147L900 0L875 0C850 0 800 0 750 0C700 0 650 0 600 0C550 0 500 0 450 0C400 0 350 0 300 0C250 0 200 0 150 0C100 0 50 0 25 0L0 0Z" fill="#6b6c5c"></path><path d="M0 273L25 246C50 219 100 165 150 175.8C200 186.7 250 262.3 300 297C350 331.7 400 325.3 450 319.5C500 313.7 550 308.3 600 300.3C650 292.3 700 281.7 750 253C800 224.3 850 177.7 875 154.3L900 131L900 0L875 0C850 0 800 0 750 0C700 0 650 0 600 0C550 0 500 0 450 0C400 0 350 0 300 0C250 0 200 0 150 0C100 0 50 0 25 0L0 0Z" fill="#7f806d"></path><path d="M0 77L25 116.2C50 155.3 100 233.7 150 237.3C200 241 250 170 300 150.2C350 130.3 400 161.7 450 160C500 158.3 550 123.7 600 118.7C650 113.7 700 138.3 750 167.7C800 197 850 231 875 248L900 265L900 0L875 0C850 0 800 0 750 0C700 0 650 0 600 0C550 0 500 0 450 0C400 0 350 0 300 0C250 0 200 0 150 0C100 0 50 0 25 0L0 0Z" fill="#95967e"></path><path d="M0 252L25 225.8C50 199.7 100 147.3 150 118.3C200 89.3 250 83.7 300 106.5C350 129.3 400 180.7 450 201.8C500 223 550 214 600 198C650 182 700 159 750 168.2C800 177.3 850 218.7 875 239.3L900 260L900 0L875 0C850 0 800 0 750 0C700 0 650 0 600 0C550 0 500 0 450 0C400 0 350 0 300 0C250 0 200 0 150 0C100 0 50 0 25 0L0 0Z" fill="#aaac90"></path><path d="M0 70L25 74.8C50 79.7 100 89.3 150 105.7C200 122 250 145 300 140C350 135 400 102 450 91.8C500 81.7 550 94.3 600 106.3C650 118.3 700 129.7 750 137.8C800 146 850 151 875 153.5L900 156L900 0L875 0C850 0 800 0 750 0C700 0 650 0 600 0C550 0 500 0 450 0C400 0 350 0 300 0C250 0 200 0 150 0C100 0 50 0 25 0L0 0Z" fill="#c1c2a2"></path><path d="M0 134L25 127.5C50 121 100 108 150 104.3C200 100.7 250 106.3 300 103.7C350 101 400 90 450 91.7C500 93.3 550 107.7 600 118.2C650 128.7 700 135.3 750 140.8C800 146.3 850 150.7 875 152.8L900 155L900 0L875 0C850 0 800 0 750 0C700 0 650 0 600 0C550 0 500 0 450 0C400 0 350 0 300 0C250 0 200 0 150 0C100 0 50 0 25 0L0 0Z" fill="#d8d9b5"></path><path d="M0 75L25 68.2C50 61.3 100 47.7 150 43.2C200 38.7 250 43.3 300 49.3C350 55.3 400 62.7 450 67.8C500 73 550 76 600 76.5C650 77 700 75 750 69.8C800 64.7 850 56.3 875 52.2L900 48L900 0L875 0C850 0 800 0 750 0C700 0 650 0 600 0C550 0 500 0 450 0C400 0 350 0 300 0C250 0 200 0 150 0C100 0 50 0 25 0L0 0Z" fill="#eff0c8"></path></svg>