<svg id="visual" viewBox="0 0 960 540" width="960" height="540" xmlns="http://www.w3.org/2000/svg" xmlns:xlink="http://www.w3.org/1999/xlink" version="1.1"><rect x="0" y="0" width="960" height="540" fill="#0f0f0f"></rect><path d="M0 233L40 254.3C80 275.7 160 318.3 240 302.3C320 286.3 400 211.7 480 171.5C560 131.3 640 125.7 720 130.2C800 134.7 880 149.3 920 156.7L960 164L960 0L920 0C880 0 800 0 720 0C640 0 560 0 480 0C400 0 320 0 240 0C160 0 80 0 40 0L0 0Z" fill="#0f0f0f"></path><path d="M0 161L40 170.7C80 180.3 160 199.7 240 217.2C320 234.7 400 250.3 480 272.5C560 294.7 640 323.3 720 310.8C800 298.3 880 244.7 920 217.8L960 191L960 0L920 0C880 0 800 0 720 0C640 0 560 0 480 0C400 0 320 0 240 0C160 0 80 0 40 0L0 0Z" fill="#242421"></path><path d="M0 256L40 262.2C80 268.3 160 280.7 240 273.2C320 265.7 400 238.3 480 240C560 241.7 640 272.3 720 287.5C800 302.7 880 302.3 920 302.2L960 302L960 0L920 0C880 0 800 0 720 0C640 0 560 0 480 0C400 0 320 0 240 0C160 0 80 0 40 0L0 0Z" fill="#3a3a33"></path><path d="M0 230L40 218.3C80 206.7 160 183.3 240 179.2C320 175 400 190 480 209.7C560 229.3 640 253.7 720 258.2C800 262.7 880 247.3 920 239.7L960 232L960 0L920 0C880 0 800 0 720 0C640 0 560 0 480 0C400 0 320 0 240 0C160 0 80 0 40 0L0 0Z" fill="#515146"></path><path d="M0 185L40 170C80 155 160 125 240 111.2C320 97.3 400 99.7 480 111.7C560 123.7 640 145.3 720 149.2C800 153 880 139 920 132L960 125L960 0L920 0C880 0 800 0 720 0C640 0 560 0 480 0C400 0 320 0 240 0C160 0 80 0 40 0L0 0Z" fill="#69695a"></path><path d="M0 77L40 94C80 111 160 145 240 158.8C320 172.7 400 166.3 480 172.5C560 178.7 640 197.3 720 203C800 208.7 880 201.3 920 197.7L960 194L960 0L920 0C880 0 800 0 720 0C640 0 560 0 480 0C400 0 320 0 240 0C160 0 80 0 40 0L0 0Z" fill="#82836e"></path><path d="M0 181L40 165.7C80 150.3 160 119.7 240 102.5C320 85.3 400 81.7 480 76C560 70.3 640 62.7 720 65.2C800 67.7 880 80.3 920 86.7L960 93L960 0L920 0C880 0 800 0 720 0C640 0 560 0 480 0C400 0 320 0 240 0C160 0 80 0 40 0L0 0Z" fill="#9c9d84"></path><path d="M0 60L40 72.7C80 85.3 160 110.7 240 117.5C320 124.3 400 112.7 480 102C560 91.3 640 81.7 720 86C800 90.3 880 108.7 920 117.8L960 127L960 0L920 0C880 0 800 0 720 0C640 0 560 0 480 0C400 0 320 0 240 0C160 0 80 0 40 0L0 0Z" fill="#b7b89a"></path><path d="M0 104L40 104.8C80 105.7 160 107.3 240 98.8C320 90.3 400 71.7 480 57.7C560 43.7 640 34.3 720 34C800 33.7 880 42.3 920 46.7L960 51L960 0L920 0C880 0 800 0 720 0C640 0 560 0 480 0C400 0 320 0 240 0C160 0 80 0 40 0L0 0Z" fill="#d2d4b1"></path><path d="M0 18L40 27C80 36 160 54 240 56.3C320 58.7 400 45.3 480 44C560 42.7 640 53.3 720 51.2C800 49 880 34 920 26.5L960 19L960 0L920 0C880 0 800 0 720 0C640 0 560 0 480 0C400 0 320 0 240 0C160 0 80 0 40 0L0 0Z" fill="#eff0c8"></path></svg>